<svg version="1.0" xmlns="http://www.w3.org/2000/svg" width="1092" height="613.333" viewBox="0 0 819 460"><path d="M126.2 63.1c-10.7 2.1-22.3 10.2-27.7 19.6-11.4 19.3-10.7 52 1.4 68 7.4 9.7 17.8 15.1 31.2 16 12.8.9 29-3.1 32.4-8.1 1.7-2.3 2-13.2.6-15.5-.8-1.2-2.2-.8-8.4 2.3-16.7 8.5-32.5 4.9-39-8.8-3.8-7.9-5.1-18.5-3.8-29.4 2.2-18.1 11.4-28.2 25.6-28.2 5.7 0 10.3 1.5 17 5.5 3.2 2 6.4 3.4 7.1 3.1 1.9-.7 2.7-8.7 1.5-13.4-.9-3.3-2-4.7-5.4-6.6-8.4-4.9-21.3-6.7-32.5-4.5zM210.4 63.5c-24.8 5.4-38.2 29.2-34.6 61.4 3.1 27.2 15.9 40.2 41.1 41.8 27.6 1.8 45.1-10 51.8-34.9 2.1-7.7 2.3-28.8.4-36.8-1.8-7.4-7.6-18.4-11.7-21.9-11.1-9.8-29.2-13.5-47-9.6zm22.2 17c11.2 3.3 16.4 14 16.4 33.5 0 15.5-2.7 23.8-9.9 30.3-4.5 4-9.3 5.7-16.7 5.7-10.7 0-17.8-4.4-22.2-14-2.5-5.2-2.6-6.4-2.7-21 0-14.7.1-15.8 2.6-21.1 2.9-6 8.6-11.6 14-13.5 4.7-1.7 12.6-1.7 18.5.1zM609.3 63.5c-23.8 5.2-38.3 24.9-38.3 52 0 16.7 4.8 29.2 14.6 38.5 11.9 11.2 31.2 15.5 52 11.5 10.9-2.1 17.2-4.3 18.4-6.5.6-1.1 1-11.4 1-24.3 0-19.9-.2-22.7-1.7-24.6-1.7-2.1-2.4-2.2-20.8-1.9l-18.9.3-.9 3.7c-.5 2.2-.5 5.4 0 7.5l.9 3.8 10.2.3 10.2.3v11.4c0 13.9-.1 14-13 14-14 0-22.2-5-27.7-16.9-2.5-5.5-2.8-7.1-2.8-17.1 0-13.1 1.9-19.4 7.9-26.2 5.4-6.1 12.2-9.3 21.1-10 8.8-.7 15.5.7 25.8 5.5 9.1 4.1 9.7 3.9 9.7-4.5 0-7.9-1.2-10.1-7.4-12.9-11.3-5.1-27.4-6.7-40.3-3.9zM290.5 66.4l-2.5 2.5v47c0 47 0 47 2.1 48.2 2.1 1.1 15.2.9 16.4-.2.3-.3.5-18.9.6-41.2 0-22.4.3-40.7.7-40.7.4 0 7 18.3 14.7 40.6 12 35 14.3 40.7 16.3 41.5 3.5 1.3 14.6 1.1 16.4-.4 1.5-1.2 3-5 12.8-32.7 2.8-8 6-16.8 7-19.5 1-2.8 3.5-9.7 5.6-15.5 6.6-19 6.3-20.3 6.4 26.1v41.7l2.3.6c3.6.9 12.7.7 14.8-.4 1.8-1 1.9-2.6 1.9-48.1v-47l-2.5-2.4c-2.3-2.3-3.1-2.5-13-2.5-11.8 0-15.6 1.2-17.8 5.8-.8 1.5-6.7 16.8-13.2 33.9-6.5 17.2-12.1 31-12.4 30.7-.3-.3-6-15.2-12.6-33.1C324.4 74 322 68.4 319.7 66.6c-2.4-1.8-4.5-2.1-14.7-2.4-11.6-.4-12-.3-14.5 2.2zM430.3 65l-2.3.9V163l2.6 1c1.4.6 4.9 1 7.9 1s6.5-.4 7.9-1l2.6-1V66l-2.6-1c-3.1-1.2-13.1-1.2-16.1 0zM473.3 66l-2.3 2.1v47.4c0 47.4 0 47.4 2.1 48.6 2.1 1.1 14.2.9 15.4-.3.3-.3.6-17.5.6-38.2V87.9l5.8 11.8c7.3 14.8 27.3 52.3 31.2 58.4 3.7 5.8 6.2 6.9 15.8 6.9 6.4 0 8.1-.3 9.9-2l2.2-2.1v-47.4c0-54 .8-49.5-9-49.5-9.7 0-9-2.8-9 37.1v35.1l-8.8-17.4c-4.9-9.5-10.5-20.2-12.4-23.8-1.9-3.6-5.7-10.6-8.3-15.5-2.6-5-6-10.4-7.6-12-2.8-2.9-3.3-3-13.2-3.3-9.3-.3-10.4-.2-12.4 1.8zM221.4 258.3c-15.3 4-23.2 14.6-22.2 30.2.9 13.3 5.7 18.8 25.3 28.3 13.2 6.5 17.5 10.3 17.5 15.3 0 13.5-19.2 17.1-37.3 7.1-4.7-2.6-4.8-2.7-6.3-.8-1.6 2.2-1.9 10.2-.5 13.9 1.1 2.9 9 6.9 16.9 8.6 14.1 2.9 29.4-.3 38.9-8.3 8.3-7 12-23.9 7.3-33.9-3.5-7.5-8.5-11.6-23.6-19.2-14.5-7.4-17.5-9.9-17.6-15.4-.3-11 12.4-14.3 27.9-7.2 3.9 1.8 7.6 3 8.2 2.7 1.4-.9 1.4-13.1.1-15.6-2.7-5.1-23.5-8.5-34.6-5.7zM309.4 258.5c-24.8 5.4-38.2 29.2-34.6 61.4 3.1 27.2 15.9 40.2 41.1 41.8 29.4 1.9 47.8-12 52.7-39.9 3.4-19.6-.7-40.6-10-51.4-9.7-11.2-30-16.1-49.2-11.9zm22.2 17c11.2 3.3 16.4 14 16.4 33.5 0 15.5-2.7 23.8-9.9 30.3-4.5 4-9.3 5.7-16.6 5.7-10.9 0-18.4-4.7-22.6-14.3-2-4.6-2.3-6.8-2.3-19.7-.1-17 1.2-22.3 7.5-29.3 6.3-7.2 16.5-9.5 27.5-6.2zM417.4 258.4c-25 5.7-38.2 29.3-34.6 61.5 3.2 27.8 16.1 40.5 42.7 41.8 30.2 1.5 47.6-13.3 51.7-43.7.9-6.9.9-11.3 0-18.9-2.5-21.5-10.7-33.5-26.7-39.1-7.8-2.8-24.4-3.6-33.1-1.6zm22.2 17.1c11.2 3.3 16.4 14 16.4 33.5 0 15.5-2.7 23.8-9.9 30.3-4.5 4-9.3 5.7-16.7 5.7-10.7 0-18.4-4.9-22.5-14.4-2.8-6.4-3.9-26.3-1.9-34.7 4-17.5 17.6-25.5 34.6-20.4zM497.2 261l-2.2 2.1v47.4c0 47.4 0 47.4 2.1 48.6 2.2 1.1 14.2.9 15.5-.3.3-.4.6-17.7.5-38.4l-.1-37.8 5.8 12c7.4 14.9 27.4 52.4 31.3 58.5 3.7 5.8 6.2 6.9 15.8 6.9 6.4 0 8.1-.3 9.9-2l2.2-2.1v-47.4c0-54 .8-49.5-9-49.5-9.7 0-9-2.8-9 37.2v35.2l-8.3-16.5c-4.6-9-10.5-20.5-13.2-25.4-2.6-5-6.3-11.9-8.2-15.5-7.7-14.4-8.6-15-22.3-15-7.3 0-9 .3-10.8 2z"/></svg>