<?xml version="1.0" standalone="no"?>
<!DOCTYPE svg PUBLIC "-//W3C//DTD SVG 20010904//EN" "http://www.w3.org/TR/2001/REC-SVG-20010904/DTD/svg10.dtd">
<svg version="1.0" xmlns="http://www.w3.org/2000/svg" width="819.000000pt" height="460.000000pt"
    viewBox="0 0 819.000000 460.000000" preserveAspectRatio="xMidYMid meet">
    <metadata>
        SVG Created by potrace 1.16, written by Peter Selinger 2001-2019
    </metadata>
    <g transform="translate(0.000000,460.000000) scale(0.100000,-0.100000)" fill="#000000" stroke="none">
        <path d="M1262 3969 c-107 -21 -223 -102 -277 -196 -114 -193 -107 -520 14 -680 74 -97 178 -151 312 -160 128 -9 290 31 324 81 17 23 20 132 6 155 -8 12 -22 8 -84 -23 -167 -85 -325 -49 -390 88 -38 79 -51 185 -38 294 22 181 114 282 256 282 57 0 103 -15 170 -55 32 -20 64 -34 71 -31 19 7 27 87 15 134 -9 33 -20 47 -54 66 -84 49 -213 67 -325 45z" />
        <path d="M2104 3965 c-248 -54 -382 -292 -346 -614 31 -272 159 -402 411 -418 276 -18 451 100 518 349 21 77 23 288 4 368 -18 74 -76 184 -117 219 -111 98 -292 135 -470 96z m222 -170 c112 -33 164 -140 164 -335 0 -155 -27 -238 -99 -303 -45 -40 -93 -57 -167 -57 -107 0 -178 44 -222 140 -25 52 -26 64 -27 210 0 147 1 158 26 211 29 60 86 116 140 135 47 17 126 17 185 -1z" />
        <path d="M6093 3965 c-238 -52 -383 -249 -383 -520 0 -167 48 -292 146 -385 119 -112 312 -155 520 -115 109 21 172 43 184 65 6 11 10 114 10 243 0 199 -2 227 -17 246 -17 21 -24 22 -208 19 l-189 -3 -9 -37 c-5 -22 -5 -54 0 -75 l9 -38 102 -3 102 -3 0 -114 c0 -139 -1 -140 -130 -140 -140 0 -222 50 -277 169 -25 55 -28 71 -28 171 0 131 19 194 79 262 54 61 122 93 211 100 88 7 155 -7 258 -55 91 -41 97 -39 97 45 0 79 -12 101 -74 129 -113 51 -274 67 -403 39z" />
        <path d="M2905 3936 l-25 -25 0 -470 c0 -470 0 -470 21 -482 21 -11 152 -9 164 2 3 3 5 189 6 412 0 224 3 407 7 407 4 0 70 -183 147 -406 120 -350 143 -407 163 -415 35 -13 146 -11 164 4 15 12 30 50 128 327 28 80 60 168 70 195 10 28 35 97 56 155 66 190 63 203 64 -261 l0 -417 23 -6 c36 -9 127 -7 148 4 18 10 19 26 19 481 l0 470 -25 24 c-23 23 -31 25 -130 25 -118 0 -156 -12 -178 -58 -8 -15 -67 -168 -132 -339 -65 -172 -121 -310 -124 -307 -3 3 -60 152 -126 331 -101 273 -125 329 -148 347 -24 18 -45 21 -147 24 -116 4 -120 3 -145 -22z" />
        <path d="M4303 3950 l-23 -9 0 -486 0 -485 26 -10 c14 -6 49 -10 79 -10 30 0 65 4 79 10 l26 10 0 485 0 485 -26 10 c-31 12 -131 12 -161 0z" />
        <path d="M4733 3940 l-23 -21 0 -474 c0 -474 0 -474 21 -486 21 -11 142 -9 154 3 3 3 6 175 6 382 l0 377 58 -118 c73 -148 273 -523 312 -584 37 -58 62 -69 158 -69 64 0 81 3 99 20 l22 21 0 474 c0 540 8 495 -90 495 -97 0 -90 28 -90 -371 l0 -351 -88 174 c-49 95 -105 202 -124 238 -19 36 -57 106 -83 155 -26 50 -60 104 -76 120 -28 29 -33 30 -132 33 -93 3 -104 2 -124 -18z" />
        <path d="M2214 2017 c-153 -40 -232 -146 -222 -302 9 -133 57 -188 253 -283 132 -65 175 -103 175 -153 0 -135 -192 -171 -373 -71 -47 26 -48 27 -63 8 -16 -22 -19 -102 -5 -139 11 -29 90 -69 169 -86 141 -29 294 3 389 83 83 70 120 239 73 339 -35 75 -85 116 -236 192 -145 74 -175 99 -176 154 -3 110 124 143 279 72 39 -18 76 -30 82 -27 14 9 14 131 1 156 -27 51 -235 85 -346 57z" />
        <path d="M3094 2015 c-248 -54 -382 -292 -346 -614 31 -272 159 -402 411 -418 294 -19 478 120 527 399 34 196 -7 406 -100 514 -97 112 -300 161 -492 119z m222 -170 c112 -33 164 -140 164 -335 0 -155 -27 -238 -99 -303 -45 -40 -93 -57 -166 -57 -109 0 -184 47 -226 143 -20 46 -23 68 -23 197 -1 170 12 223 75 293 63 72 165 95 275 62z" />
        <path d="M4174 2016 c-250 -57 -382 -293 -346 -615 32 -278 161 -405 427 -418 302 -15 476 133 517 437 9 69 9 113 0 189 -25 215 -107 335 -267 391 -78 28 -244 36 -331 16z m222 -171 c112 -33 164 -140 164 -335 0 -155 -27 -238 -99 -303 -45 -40 -93 -57 -167 -57 -107 0 -184 49 -225 144 -28 64 -39 263 -19 347 40 175 176 255 346 204z" />
        <path d="M4972 1990 l-22 -21 0 -474 c0 -474 0 -474 21 -486 22 -11 142 -9 155 3 3 4 6 177 5 384 l-1 378 58 -120 c74 -149 274 -524 313 -585 37 -58 62 -69 158 -69 64 0 81 3 99 20 l22 21 0 474 c0 540 8 495 -90 495 -97 0 -90 28 -90 -372 l0 -352 -83 165 c-46 90 -105 205 -132 254 -26 50 -63 119 -82 155 -77 144 -86 150 -223 150 -73 0 -90 -3 -108 -20z" />
    </g>
</svg>