<svg xmlns="http://www.w3.org/2000/svg" width="1092" height="613.3" version="1.0" viewBox="0 0 819 460"><path d="M126 63c-10 2-22 10-27 20-12 19-11 52 1 68 7 9 18 15 31 16s29-3 33-8c1-3 2-14 0-16-1-1-2-1-8 2-17 9-33 5-39-8-4-8-5-19-4-30 2-18 11-28 26-28 5 0 10 1 17 5l7 4c2-1 2-9 1-14-1-3-2-5-5-6-9-5-22-7-33-5zm84 1c-24 5-38 29-34 61 3 27 16 40 41 42 28 2 45-10 52-35 2-8 2-29 0-37-2-7-8-18-12-22a55 55 0 0 0-47-10zm23 17c11 3 16 14 16 33 0 16-3 24-10 30-4 4-9 6-17 6-10 0-17-4-22-14-2-5-2-6-2-21s0-16 2-21c3-6 9-12 14-14 5-1 13-1 19 1zm376-17c-23 5-38 24-38 52 0 16 5 29 15 38 12 11 31 16 52 12 11-3 17-5 18-7l1-24c0-20 0-23-2-25-1-2-2-2-20-2h-19l-1 4v8l1 3 10 1h10v11c0 14 0 14-13 14-14 0-22-5-28-16-2-6-2-8-2-18 0-13 1-19 7-26 6-6 13-9 22-10 8 0 15 1 25 6 9 4 10 4 10-5 0-8-1-10-7-13-12-5-28-6-41-4zm-318 2-3 3v47c0 47 0 47 2 48h17a913 913 0 0 0 1-82l15 41c12 35 14 40 16 41h16c2-2 3-5 13-33l7-20 6-15c6-19 6-20 6 26v42h17c2-1 2-3 2-48V69l-2-3c-3-2-4-2-13-2-12 0-16 1-18 6a1117 1117 0 0 0-26 64l-12-33c-11-27-13-33-15-34-3-2-5-3-15-3-12 0-12 0-14 2zm139-1-2 1v97l3 1 8 1 7-1 3-1V66l-3-1h-16zm43 1-2 2v48c0 47 0 47 2 48h16V88l6 12 31 58c4 6 6 7 16 7 6 0 8 0 10-2l2-2v-48c0-54 1-49-9-49s-9-3-9 37v35l-9-17-12-24-8-16-8-12c-3-2-3-3-13-3s-11 0-13 2zM221 258c-15 4-23 15-22 30 1 14 6 19 25 29 14 6 18 10 18 15 0 14-19 17-37 7-5-2-5-3-7-1-1 3-2 11 0 14 1 3 9 7 17 9 14 3 29 0 39-8 8-7 12-24 7-34-3-8-8-12-24-20-14-7-17-9-17-15 0-11 12-14 28-7l8 3v-16c-3-5-23-8-35-6zm88 1c-24 5-38 29-34 61 3 27 16 40 41 42 29 2 48-12 53-40 3-20-1-41-10-52-10-11-30-16-50-12zm23 17c11 3 16 14 16 33 0 16-3 24-10 30-4 4-9 6-16 6-11 0-19-5-23-14-2-5-2-7-2-20-1-17 1-22 7-29 6-8 17-10 28-7zm85-18c-25 6-38 30-34 62 3 28 16 40 43 42 30 1 47-14 51-44v-19c-2-21-11-33-27-39-7-3-24-4-33-2zm23 17c11 4 16 15 16 34 0 16-3 24-10 30-4 4-9 6-17 6-10 0-18-5-22-14-3-7-4-27-2-35 4-18 18-26 35-20zm57-14-2 2v48c0 47 0 47 2 48h16v-76l6 12 31 58c4 6 6 7 16 7 6 0 8 0 10-2l2-2v-48c0-54 1-49-9-49s-9-3-9 37v35l-8-16-13-26-9-15c-7-14-8-15-22-15-7 0-9 0-11 2z"/></svg>