<svg version="1.0" xmlns="http://www.w3.org/2000/svg" width="533.333" height="533.333" viewBox="0 0 400 400"><path d="M194 21.7c-2.5.8-7.3 1.8-10.7 2.3-5.4.9-13.1 4.1-17.1 7.3-.7.5-1.5.7-1.8.4-.6-.6-6.6 1.2-7.4 2.2-1.4 1.8-8.9 6.9-11.6 8-4.9 1.9-10.9 8.9-15.6 18.1-5.8 11.2-7.8 16.7-7.8 21.7 0 2.3-.5 4.5-1.1 4.9-1.8 1.1-4.9 9.3-4.9 13 0 1.9-1.3 5.9-3.1 9.2-2.4 4.4-3 6.6-2.6 9.4.3 2.1.1 4.1-.4 4.4-.5.3-2.1 2.8-3.5 5.6-2 3.9-2.4 5.9-1.9 8.8.4 2.4.2 4.1-.5 4.5-.6.4-2.2 3-3.5 5.8-2.2 4.4-2.4 5.5-1.4 9 .9 3.4.8 4.2-.5 4.9-.9.5-2.6 2.8-3.7 5-1.7 3.4-2 5.2-1.5 9.4.5 4.5.3 5.3-1.1 5.8-2.7.9-6.1 8.4-6.6 14.9-.4 4.2-1.3 6.8-3.2 9.3-3.3 4.4-5.5 10.6-5.5 15.8 0 2.4-1.3 7.2-3 11.4-2.7 6.2-3.1 8.6-3.2 17-.2 8.9 0 10 2.5 13.9 1.4 2.3 3.4 4.7 4.4 5.5 1 .7 4 4 6.6 7.3 7 8.6 13.5 13.6 28.2 21.7 10.2 5.6 27.5 15.8 29.3 17.3.3.2-2 10.6-3.6 16.5-.5 1.9-2.2 8-3.7 13.5s-3.6 12.7-4.7 16c-4.3 12.9.2 28.9 9.9 35l4.8 3 35.3.3c19.4.2 35.1-.1 35-.5-.2-.4 1.2-3.7 2.9-7.3 1.8-3.6 3.6-9 4.1-12 1-5.4 13.2-42.1 15.8-47.1 1-2 2.5-2.8 6.7-3.8 3-.6 8.1-2.8 11.3-4.7 12.5-7.5 18.4-16 22.5-32.7 2.1-8.3 2.2-8.9.6-12.2-1.7-3.5-1.7-3.5 1.3-5.7 1.7-1.2 3-3 3-4.1 0-1 .4-2.6 1-3.6.6-1.2.6-3.1-.1-5.5-.9-3.4-.8-4.1 1.7-7.4 2.4-3.1 2.8-4.5 2.8-10.6.1-5.7.5-7.7 2.4-10.3 1.7-2.4 2.2-4.5 2.2-9.4 0-4.3.5-6.8 1.6-8 1-1.2 1.8-4.3 2.1-8.6.2-3.9 1.3-8.6 2.5-11.1 1.1-2.3 2.1-6.9 2.3-10.1.1-3.2 1-7.2 1.9-8.9.9-1.7 1.6-5.3 1.6-7.9 0-2.8 1-7.3 2.5-10.8 1.3-3.3 2.5-7.9 2.5-10.3 0-2.4.6-5.5 1.4-7 2.1-4.1 3.9-19 3.4-27.3-.8-12.1-7.2-23.3-23.8-41.9-3.6-4-7.6-8.2-9-9.4-1.3-1.2-8.3-7.7-15.5-14.6-12.8-12.1-23.8-20-28-20-1.1 0-3.7-1.1-5.7-2.5-2-1.3-5.6-2.9-8-3.4-6.5-1.4-25.6-1.1-30.8.6zM212 54c3.6.7 7 1.6 7.5 2 .6.4 2.5 1.1 4.2 1.5 5.2 1.1 14.8 6.1 26.8 14 15.1 10 20.4 15 21.2 19.7.5 3.4.3 3.8-2.3 4.8-2.3.9-3.2.8-5.3-.8-6.9-5-19.8-13.6-29.2-19.4-8.5-5.2-11.9-6.7-18.4-8.1-18-3.7-35.1-3.7-48.3 0-6.2 1.7-8.2 1.2-8.2-2 0-5.7 6.8-9.7 19-11.3 3-.3 6.2-1.1 7-1.5 2-1.2 18-.6 26 1.1zm-6.5 19.9c2.8.6 5.7 1.3 6.5 1.4.8.2 2.2.6 3 .9.8.4 3.8 1.4 6.5 2.4 6.1 2.3 11.8 5.2 19.3 10.1 3.1 2.1 6.2 4 6.7 4.3 2.9 1.5 13.8 9.4 17 12.4 3 2.9 3.6 4 3.3 6.8-.3 3.1-.6 3.3-4.4 3.6-2.7.2-4.5-.2-5.4-1.3-.7-.8-1.6-1.5-2-1.5-.4 0-5-2.8-10.3-6.3-24.4-15.9-24.6-16-37.7-19.3-11.7-3-38.6-2.8-46.5.2-.8.3-2.1-.6-3-1.9-1.5-2.3-1.5-2.8 0-5.6.8-1.7 2.2-3.1 3-3.1.7 0 2.6-.5 4.2-1.2 8.3-3.5 28.5-4.5 39.8-1.9zm-51.7 9.3c3.2 3.2-.7 14.4-7.3 20.8-4.4 4.3-11.7 5.4-13.4 2.1-1.4-2.4-.5-8.6 1.5-11.6 2.3-3.2 1.6-3.8-1.3-1-4.8 4.4-9.6 4.6-8.6.2 1.6-6.4 12.3-11.9 12.3-6.3 0 2.2.2 2.2 3.9-1.5 3.2-3.2 4.6-3.9 7.8-3.9 2.1 0 4.4.5 5.1 1.2zM198 94c11.7 1.6 36 12.4 43.8 19.4 1.3 1.2 2.7 2 3 2 .4-.1 3.8 1.9 7.5 4.4 4.6 3.1 7.5 5.8 8.8 8.5 2.3 4.4 2 6.3-1.5 7.8-2.5 1.2-2.2 1.3-21.9-10.8-2.9-1.8-5.9-3.6-6.7-4-.8-.4-5.1-2.9-9.5-5.5-4.4-2.7-9.1-5.1-10.5-5.4-1.4-.3-3.6-1-5-1.4-8.8-3.1-26.2-4.1-41.5-2.3-7.6.9-9.3.8-10.7-.5-1-.8-1.8-1.9-1.8-2.3 0-1.8 6.2-7.7 8.8-8.3 1.5-.4 4.3-1.1 6.2-1.5 4.5-1.1 23.8-1.2 31-.1zm-9.6 21.1c10.9 1.3 24.7 5.7 34 10.7 23.3 12.7 33.1 19.3 34.5 23.2 1.3 3.8-.1 7.9-2.6 8.1-3.3.2-4.4-.2-10.9-4.2-3.5-2.1-6.6-3.9-6.9-3.9-.2 0-2.1-1.2-4.2-2.6-7.5-5.1-23.4-13.6-27-14.6-13.8-3.4-17.5-3.8-35.3-3.7-22.6 0-36.7 2-53.2 7.2-5.1 1.6-5.8 1.4-5.8-1.7 0-5.7 6.5-9.5 24-14.1 18.9-4.9 37-6.4 53.4-4.4zm-5.3 21.2c5.2.8 21.4 5.2 21.9 5.9.3.3 1.8 1 3.3 1.3 3.7 1 18 8.4 26.2 13.6 2.2 1.4 4.7 2.9 5.5 3.3 7.5 3.5 11.9 7.5 12.6 11.2.7 3.9-1.5 7.4-4.7 7.4-2.1 0-1.7.2-29.9-16.1-10.6-6.1-16.4-8.9-18.3-8.9-.9 0-2.5-.4-3.5-.9-.9-.5-5.5-1.7-10.2-2.7-16.2-3.3-50.9-1.3-70.5 4.1-11.2 3.1-10.5 3.2-10.5-.7 0-8.2 5.5-10.5 43-17.8 4.3-.8 29.7-.6 35.1.3zm-1.6 22.5c1.7.6 7.7 2.5 13.5 4.3 5.8 1.8 11.6 3.9 13 4.6 1.4.7 3 1.3 3.7 1.3.6 0 1.3.3 1.5.7.2.5 3.7 2.6 7.8 4.7 4.1 2.2 8.9 4.8 10.5 5.7 1.7 1 4.4 2.5 6.1 3.4 6.6 3.4 9.6 6.8 9.8 11 .1 3.2-.3 4.1-2.3 5.1-3.1 1.6-5.3.7-19.4-7.4-24.2-13.8-36.9-18.5-55.7-20.4-11.3-1.1-44.6-.4-51 1.2-14.4 3.4-21.1 4.6-21.6 3.8-1.2-1.9 4.7-10 8.4-11.5 4.7-2 23.4-6.1 33.2-7.3 9.3-1.1 38.4-.5 42.5.8zm-11 22c.5.4 3.5 1.2 6.5 1.8 14.6 3 30.4 9.6 52.5 21.8 10.6 5.8 12.5 7.7 12.5 11.8 0 1.9-.5 3.9-1.2 4.6-2.6 2.6-5.4 1.6-35.1-13.4-2.7-1.3-5.4-2.4-6-2.4-.7 0-3.2-1.4-5.7-3s-5.3-3-6.3-3c-.9 0-2.5-.4-3.5-.9-1.7-1-9.5-2.6-20.7-4.2-3.3-.5-13.1-.8-21.7-.7-11.3 0-16.2-.3-17.3-1.2-3.5-2.9-.3-10.6 4.8-11.5 8.6-1.4 38.8-1.2 41.2.3zm-58.3 2.7c.3.3-.2 3.2-1.2 6.3-1.7 5.6-1.8 5.7-6.1 6.3-2.4.4-6.2 1.2-8.4 1.8-5.2 1.4-6.2.3-4.5-4.9 1.7-5.1 2.7-5.9 10.3-8 6.8-2 9.1-2.3 9.9-1.5zm52.3 20.7c4.4.9 10.5 2.3 13.5 3.2 3 .9 7.2 2.1 9.3 2.7 2.1.5 4.5 1.3 5.5 1.8.9.5 3.5 1.7 5.7 2.7 2.2.9 8.7 4 14.5 6.9 23.5 11.7 23 11.3 23 17 0 4.9-.5 5.5-5.3 5.7-3.1.1-5.7-.8-11.2-4-2-1.1-9-4.3-26.5-12.2-5.2-2.3-10.2-4.5-11-5-.9-.4-3.6-1.1-6-1.4-2.5-.4-5.4-1.1-6.5-1.6-4.5-2.1-23-4-37.8-4-15.4 0-15.6 0-15.9-2.3-.5-2.8 2.8-9.2 5.6-10.6 3-1.5 33.3-.7 43.1 1.1zm-58.9 2.5c-.3 1-.8 3.5-1.2 5.5-.8 4.8-1.7 5.4-8.9 6.2-3.2.4-6.9.9-8.2 1.2-2.1.6-2.3.3-2.3-2.7 0-6.6 7.3-11.5 17.3-11.8 3.2-.1 3.8.2 3.3 1.6z"/></svg>