<svg xmlns="http://www.w3.org/2000/svg" width="533.3" height="533.3" version="1.0" viewBox="0 0 400 400"><path d="m194 22-11 2c-5 1-13 4-17 7l-2 1-7 2c-1 2-9 7-12 8-4 2-10 9-15 18-6 11-8 17-8 22l-1 5c-2 1-5 9-5 13l-3 9-3 9v5l-4 5c-2 4-2 6-1 9l-1 5-3 5c-3 5-3 6-2 9v5l-4 5c-2 4-2 5-2 10 1 4 1 5-1 5-2 1-6 9-6 15l-3 10c-4 4-6 10-6 15l-3 12c-3 6-3 8-3 17s0 10 2 14l5 5 6 8c7 8 14 13 29 21l29 18-4 16-3 14-5 16c-4 12 0 28 10 35l5 3h35l35-1 3-7 4-12c1-5 13-42 16-47 1-2 2-3 6-4 3 0 8-3 12-5 12-7 18-16 22-32 2-9 2-9 1-12-2-4-2-4 1-6l3-4 1-4v-5c-1-4-1-4 2-8 2-3 2-4 2-10 1-6 1-8 3-11 2-2 2-4 2-9l2-8 2-9 2-11 3-10 1-9 2-8c0-2 1-7 3-10l2-11 1-7c3-4 4-19 4-27-1-12-7-23-24-42l-9-9-15-15c-13-12-24-20-28-20l-6-2-8-4c-7-1-26-1-31 1zm18 32 8 2 4 1 26 14c16 11 21 16 22 20 0 4 0 4-3 5a570 570 0 0 0-53-28c-18-4-35-4-48 0-6 1-8 1-8-2 0-6 7-10 19-12l7-1c2-1 18-1 26 1zm-6 20 6 1 3 1 7 3c6 2 11 5 19 10l7 4 17 12c3 3 3 4 3 7s-1 4-5 4l-5-1-2-2-10-6c-25-16-25-16-38-20-12-3-39-2-46 1l-3-2c-2-3-2-3 0-6 0-2 2-3 3-3l4-1c8-4 28-5 40-2zm-52 9c3 3-1 15-7 21-5 4-12 5-14 2-1-2 0-9 2-12s1-3-2-1c-5 5-9 5-8 1 1-7 12-12 12-7 0 3 0 3 4-1 3-3 5-4 8-4l5 1zm44 11a119 119 0 0 1 47 21l7 5c5 3 8 6 9 8 2 5 2 7-1 8s-3 1-22-11a152 152 0 0 0-16-9l-11-6-5-1c-9-3-26-4-41-2-8 1-10 1-11-1l-2-2c0-2 6-8 9-8l6-2h31zm-10 21c11 1 25 6 34 11 24 12 34 19 35 23s0 8-3 8-4 0-11-4l-7-4-4-3c-7-5-23-13-27-14-14-4-17-4-35-4-23 0-37 2-53 7-5 2-6 2-6-1 0-6 6-10 24-14 19-5 37-7 53-5zm-5 21a149 149 0 0 1 57 24c8 4 12 8 13 12 0 4-2 7-5 7l-30-16a70 70 0 0 0-22-10l-10-3c-16-3-51-1-70 5-12 3-11 3-11-1 0-8 6-11 43-18h35zm-2 23a629 629 0 0 0 32 11l8 4a918 918 0 0 1 17 10c6 3 9 6 9 11 1 3 0 4-2 5-3 1-5 0-19-8-25-14-37-18-56-20a307 307 0 0 0-73 5c-1-2 5-10 9-12 5-2 23-6 33-7 9-1 38-1 43 1zm-10 22 6 2c15 3 30 9 53 21 10 6 12 8 12 12l-1 5c-3 2-6 1-35-14l-6-2-6-3-6-3-4-1-20-4-22-1-17-1c-4-3-1-11 4-11 9-2 39-2 42 0zm-59 3-1 6c-2 5-2 6-6 6l-9 2c-5 1-6 0-4-5s3-6 10-8 9-2 10-1zm52 20a198 198 0 0 1 49 17c24 12 23 12 23 17s0 6-5 6l-12-4-26-12-11-5-6-1-6-2c-5-2-23-4-38-4-16 0-16 0-16-2-1-3 3-10 5-11 3-1 34-1 43 1zm-58 3-2 5c0 5-1 6-9 6l-8 2c-2 0-2 0-2-3 0-7 7-12 17-12 3 0 4 0 4 2z"/></svg>