<svg xmlns="http://www.w3.org/2000/svg" width="533.333" height="533.333" preserveAspectRatio="xMidYMid meet" version="1.0" viewBox="0 0 400 400"><metadata>SVG Created by potrace 1.16, written by Peter Selinger 2001-2019</metadata><g fill="#000" stroke="none"><path d="M1940 3783 c-25 -8 -73 -18 -107 -23 -54 -9 -131 -41 -171 -73 -7 -5 -15 -7 -18 -4 -6 6 -66 -12 -74 -22 -14 -18 -89 -69 -116 -80 -49 -19 -109 -89 -156 -181 -58 -112 -78 -167 -78 -217 0 -23 -5 -45 -11 -49 -18 -11 -49 -93 -49 -130 0 -19 -13 -59 -31 -92 -24 -44 -30 -66 -26 -94 3 -21 1 -41 -4 -44 -5 -3 -21 -28 -35 -56 -20 -39 -24 -59 -19 -88 4 -24 2 -41 -5 -45 -6 -4 -22 -30 -35 -58 -22 -44 -24 -55 -14 -90 9 -34 8 -42 -5 -49 -9 -5 -26 -28 -37 -50 -17 -34 -20 -52 -15 -94 5 -45 3 -53 -11 -58 -27 -9 -61 -84 -66 -149 -4 -42 -13 -68 -32 -93 -33 -44 -55 -106 -55 -158 0 -24 -13 -72 -30 -114 -27 -62 -31 -86 -32 -170 -2 -89 0 -100 25 -139 14 -23 34 -47 44 -55 10 -7 40 -40 66 -73 70 -86 135 -136 282 -217 102 -56 275 -158 293 -173 3 -2 -20 -106 -36 -165 -5 -19 -22 -80 -37 -135 -15 -55 -36 -127 -47 -160 -43 -129 2 -289 99 -350 l48 -30 353 -3 c194 -2 351 1 350 5 -2 4 12 37 29 73 18 36 36 90 41 120 10 54 132 421 158 471 10 20 25 28 67 38 30 6 81 28 113 47 125 75 184 160 225 327 21 83 22 89 6 122 -17 35 -17 35 13 57 17 12 30 30 30 41 0 10 4 26 10 36 6 12 6 31 -1 55 -9 34 -8 41 17 74 24 31 28 45 28 106 1 57 5 77 24 103 17 24 22 45 22 94 0 43 5 68 16 80 10 12 18 43 21 86 2 39 13 86 25 111 11 23 21 69 23 101 1 32 10 72 19 89 9 17 16 53 16 79 0 28 10 73 25 108 13 33 25 79 25 103 0 24 6 55 14 70 21 41 39 190 34 273 -8 121 -72 233 -238 419 -36 40 -76 82 -90 94 -13 12 -83 77 -155 146 -128 121 -238 200 -280 200 -11 0 -37 11 -57 25 -20 13 -56 29 -80 34 -65 14 -256 11 -308 -6z m180 -323 c36 -7 70 -16 75 -20 6 -4 25 -11 42 -15 52 -11 148 -61 268 -140 151 -100 204 -150 212 -197 5 -34 3 -38 -23 -48 -23 -9 -32 -8 -53 8 -69 50 -198 136 -292 194 -85 52 -119 67 -184 81 -180 37 -351 37 -483 0 -62 -17 -82 -12 -82 20 0 57 68 97 190 113 30 3 62 11 70 15 20 12 180 6 260 -11z m-65 -199 c28 -6 57 -13 65 -14 8 -2 22 -6 30 -9 8 -4 38 -14 65 -24 61 -23 118 -52 193 -101 31 -21 62 -40 67 -43 29 -15 138 -94 170 -124 30 -29 36 -40 33 -68 -3 -31 -6 -33 -44 -36 -27 -2 -45 2 -54 13 -7 8 -16 15 -20 15 -4 0 -50 28 -103 63 -244 159 -246 160 -377 193 -117 30 -386 28 -465 -2 -8 -3 -21 6 -30 19 -15 23 -15 28 0 56 8 17 22 31 30 31 7 0 26 5 42 12 83 35 285 45 398 19z m-517 -93 c32 -32 -7 -144 -73 -208 -44 -43 -117 -54 -134 -21 -14 24 -5 86 15 116 23 32 16 38 -13 10 -48 -44 -96 -46 -86 -2 16 64 123 119 123 63 0 -22 2 -22 39 15 32 32 46 39 78 39 21 0 44 -5 51 -12z m442 -108 c117 -16 360 -124 438 -194 13 -12 27 -20 30 -20 4 1 38 -19 75 -44 46 -31 75 -58 88 -85 23 -44 20 -63 -15 -78 -25 -12 -22 -13 -219 108 -29 18 -59 36 -67 40 -8 4 -51 29 -95 55 -44 27 -91 51 -105 54 -14 3 -36 10 -50 14 -88 31 -262 41 -415 23 -76 -9 -93 -8 -107 5 -10 8 -18 19 -18 23 0 18 62 77 88 83 15 4 43 11 62 15 45 11 238 12 310 1z m-96 -211 c109 -13 247 -57 340 -107 233 -127 331 -193 345 -232 13 -38 -1 -79 -26 -81 -33 -2 -44 2 -109 42 -35 21 -66 39 -69 39 -2 0 -21 12 -42 26 -75 51 -234 136 -270 146 -138 34 -175 38 -353 37 -226 0 -367 -20 -532 -72 -51 -16 -58 -14 -58 17 0 57 65 95 240 141 189 49 370 64 534 44z m-53 -212 c52 -8 214 -52 219 -59 3 -3 18 -10 33 -13 37 -10 180 -84 262 -136 22 -14 47 -29 55 -33 75 -35 119 -75 126 -112 7 -39 -15 -74 -47 -74 -21 0 -17 -2 -299 161 -106 61 -164 89 -183 89 -9 0 -25 4 -35 9 -9 5 -55 17 -102 27 -162 33 -509 13 -705 -41 -112 -31 -105 -32 -105 7 0 82 55 105 430 178 43 8 297 6 351 -3z m-16 -225 c17 -6 77 -25 135 -43 58 -18 116 -39 130 -46 14 -7 30 -13 37 -13 6 0 13 -3 15 -7 2 -5 37 -26 78 -47 41 -22 89 -48 105 -57 17 -10 44 -25 61 -34 66 -34 96 -68 98 -110 1 -32 -3 -41 -23 -51 -31 -16 -53 -7 -194 74 -242 138 -369 185 -557 204 -113 11 -446 4 -510 -12 -144 -34 -211 -46 -216 -38 -12 19 47 100 84 115 47 20 234 61 332 73 93 11 384 5 425 -8z m-110 -220 c5 -4 35 -12 65 -18 146 -30 304 -96 525 -218 106 -58 125 -77 125 -118 0 -19 -5 -39 -12 -46 -26 -26 -54 -16 -351 134 -27 13 -54 24 -60 24 -7 0 -32 14 -57 30 -25 16 -53 30 -63 30 -9 0 -25 4 -35 9 -17 10 -95 26 -207 42 -33 5 -131 8 -217 7 -113 0 -162 3 -173 12 -35 29 -3 106 48 115 86 14 388 12 412 -3z m-583 -27 c3 -3 -2 -32 -12 -63 -17 -56 -18 -57 -61 -63 -24 -4 -62 -12 -84 -18 -52 -14 -62 -3 -45 49 17 51 27 59 103 80 68 20 91 23 99 15z m523 -207 c44 -9 105 -23 135 -32 30 -9 72 -21 93 -27 21 -5 45 -13 55 -18 9 -5 35 -17 57 -27 22 -9 87 -40 145 -69 235 -117 230 -113 230 -170 0 -49 -5 -55 -53 -57 -31 -1 -57 8 -112 40 -20 11 -90 43 -265 122 -52 23 -102 45 -110 50 -9 4 -36 11 -60 14 -25 4 -54 11 -65 16 -45 21 -230 40 -378 40 -154 0 -156 0 -159 23 -5 28 28 92 56 106 30 15 333 7 431 -11z m-589 -25 c-3 -10 -8 -35 -12 -55 -8 -48 -17 -54 -89 -62 -32 -4 -69 -9 -82 -12 -21 -6 -23 -3 -23 27 0 66 73 115 173 118 32 1 38 -2 33 -16z" transform="translate(0.000000,400.000000) scale(0.100000,-0.100000)"/></g></svg>