<svg version="1.0" xmlns="http://www.w3.org/2000/svg" width="1068" height="198.667" viewBox="0 0 801 149"><path d="M0 52v52h17l-.1 2.7c0 2.8-.1 2.8-1.1.5-.7-1.3-2-2.2-3.5-2.2-2.2 0-2.3.2-2.3 9 0 7.4.3 9.1 1.8 9.9 1.3.8.6 1-3.3 1s-4.6-.2-3.3-1c1.5-.8 1.8-2.5 1.8-9.9 0-8.8-.1-9-2.3-9-4 0-4.7 3.4-4.7 24.5V149h801l-.1-32.3c-.1-29.2-.2-31.6-1.4-26.2-6.5 29.7-29.2 51.8-58.4 56.9-3.1.5-3.3.4-2.8-1.7 1.2-5.4 3.7-13.7 5.7-19 1.8-4.8 2.7-6 5.8-7.3 7.4-3 11.2-8.9 11.2-17.1 0-1.7.4-3.4.9-3.7.8-.5 1.8-4.6 2.5-10.6.1-1.4.5-3.2.9-4 .3-.8.8-2.9 1.2-4.5.3-1.7 1-5 1.6-7.5.6-2.5 1.2-5.4 1.4-6.5.3-1.1 1.2-5.2 2-9 2.7-11.7 3-18.7.9-23.1-2.2-4.6-19.1-22.4-23.1-24.3-1.5-.7-4-2-5.5-2.7-3.4-1.8-9.3-1.8-16 0-11.8 3.1-17.9 7.1-21.3 14-1.4 2.7-2.5 5.8-2.5 6.8s-.4 2.6-.9 3.6c-1.1 2.3-3.2 8.3-3.6 10.2-.1.8-.7 2.8-1.3 4.3-.7 1.5-1.1 3.1-1 3.5.1.4-.3 1.7-1 3-.7 1.2-1.2 2.8-1 3.5.1.6-.4 2.3-1.1 3.6-.7 1.2-1.1 3.1-.8 4 .2.9-.2 2.2-1 2.9-.7.7-1.3 2.2-1.3 3.3 0 1.2-.6 3.3-1.4 4.7-2.1 4.1-4.6 13.5-4.6 17.3 0 5.1 7 12.6 17.3 18.5 4.5 2.6 8.4 4.8 8.6 5 .3.2-.8 4.9-2.3 10.4-2.7 9.4-2.9 13.1-1.1 17.3.7 1.8.6 1.8-3.1.2-6.6-2.7-17.2-10.5-23.2-17-24.1-26.4-26.6-66.3-6-96.3 8.7-12.7 25.1-24.1 39.5-27.6C719.7.4 670.9.2 360.3.1L0 0v52zM54.1 5.1c6 3.3 7.1 5.8 6.5 14.7-.3 4.1-.8 7.8-1.2 8.3-.3.5-4.9.9-10.3.9h-9.8l1-5c1.1-5.7.5-8-2.1-8s-4.9 2.9-5.7 7.2c-1 5.5.1 7.4 6.8 12C53.8 45 56.8 49.9 55.5 61.4c-2.4 20.5-10.2 28.1-29 28.1-10.2 0-16.9-2.4-20.1-7.3-2-3-2.5-11.3-1.1-19.5l.8-4.7h20.1l-.8 4.7c-.4 2.7-.8 6.6-.8 8.8-.1 3.6.2 4 2.6 4.3 3.3.4 5.4-2.4 6.4-8.5 1-6.6 0-8.5-7.3-13.9-12-8.7-14.1-11-15.3-16.7-.9-4.2-.9-6.6.4-12.6 1.8-8.7 3.8-12.3 8.8-16.4 5.2-4.2 11.7-5.8 21.5-5.3 6.2.3 9.2.9 12.4 2.7zm175.5.6c-.4 1.6-3.5 19.4-7.1 39.8-3.6 20.3-6.8 38.2-7.1 39.8l-.6 2.7h-22l.6-2.7c.3-1.6 3.3-18.3 6.6-37.3 3.3-19 6.5-36.9 7.1-39.8l1-5.2h22.1l-.6 2.7zm29 0c-.4 1.6-3.5 19.4-7.1 39.8-3.6 20.3-6.8 38.2-7.1 39.8l-.6 2.7h-22l.6-2.7c.3-1.6 3.3-18.3 6.6-37.3 3.3-19 6.5-36.9 7.1-39.8l1-5.2h22.1l-.6 2.7zM319.5 4c7.3 1.2 10.6 3.5 12.4 8.7 1.3 3.7 1.2 5.6-1.8 23.4-6.9 41.3-8.3 45.5-15.6 49.3-3.6 1.9-6 2.1-24.3 2.4l-20.4.3.6-2.8c.3-1.5 3.3-18.3 6.6-37.3 3.3-19 6.5-36.9 7.1-39.8l1-5.2h14.2c7.8 0 16.9.5 20.2 1zM508 3.2c0 .2-.7 3.8-1.5 8.1s-1.5 8.1-1.5 8.3c0 .2-2.7.4-5.9.4h-6l-1 5.2c-.6 2.9-3.1 17-5.6 31.3-2.5 14.3-4.8 27.2-5.1 28.8l-.6 2.7h-22l.6-2.7c.3-1.6 2.8-15.6 5.6-31.3 2.7-15.7 5.2-29.7 5.6-31.3l.6-2.7h-13.4l.6-2.8c.3-1.5 1-5.3 1.6-8.5l1.1-5.7h23.5c12.9 0 23.4.1 23.4.2zm75.6 2.5c-.4 1.6-3.5 19.4-7.1 39.8-3.6 20.3-6.8 38.2-7.1 39.8l-.6 2.7h-22l.6-2.7c.3-1.6 3.3-18.3 6.6-37.3 3.3-19 6.5-36.9 7.1-39.8l1-5.2h22.1l-.6 2.7zm28 0c-1.5 7.3-4.7 28.6-4.4 29.5.2.6 2.2-2.8 4.3-7.5l4-8.7H633l-1.4 3.2c-.8 1.8-3.7 8.1-6.5 13.9l-5 10.6 1.4 19.9c.8 11 1.5 20.2 1.5 20.6 0 .5-4.5.8-10 .8h-10l-.1-14.8-.1-14.7-1.9 9.5c-1 5.2-2.4 11.9-3 14.7l-1 5.3h-21.1l.6-2.7c.3-1.6 3.3-18.3 6.6-37.3 3.3-19 6.5-36.9 7.1-39.8l1-5.2h21.1l-.6 2.7zM110.7 18.9c1.7 1.1 3.4 2.9 3.8 4.1l.7 2.2 2.6-2.5c8.1-7.5 19.7-7.5 23.1 0 1.7 3.8 1.4 7.1-3.9 36.8-2.7 15.4-5 28.1-5 28.2 0 .2-4.5.3-10.1.3h-10.1l.6-2.8c2.6-12.7 8.6-49 8.6-52.2 0-3.4-.3-4-2.1-4-3.1 0-4.2 4-8.8 30-2.3 12.9-4.4 24.7-4.7 26.2l-.6 2.8h-20l.6-2.7c.3-1.6 2.3-12.9 4.5-25.3 3.7-20.9 4.5-26.6 4.2-29.8-.1-1.6-3.6-1.5-5 .2-.8 1-11 53.6-11.1 57.3 0 .2-4.5.3-10.1.3H57.8l.6-2.7C59.2 81.6 70 20.1 70 19.5c0-.3 4.6-.5 10.1-.5h10.2l-.6 2.9-.6 2.9 2.4-2.4c5.4-5.4 13.6-6.8 19.2-3.5zm72.6-.8c2.1.5 5.2 2.3 7 3.9 3.1 2.8 3.2 3 3.1 11.2-.1 6.7-4.3 34.3-8 52.1l-.6 2.7h-21l.7-3.3c.6-3.1.6-3.1-.9-1.1-2 2.8-7.6 5.4-11.6 5.4-4.8 0-9.6-2.7-11.1-6.2-1.5-3.7.2-16.9 3.1-23.4 1.9-4.4 4.3-5.9 19.5-12.1 7.9-3.2 9.5-5.3 9.5-12.6 0-3.4-.4-4.9-1.6-5.4-2.6-1-4.4 2-5.6 9l-1.1 6.7h-18.9l.6-4.8c.4-2.6 1.9-7.2 3.4-10.2 2.2-4.4 3.8-6.1 8.1-8.7 2.9-1.8 6.5-3.4 8-3.6 5.4-.8 13.7-.7 17.4.4zm189.2 0c5.6 1.6 11 7.3 11.9 12.7.5 3.7-.2 11.7-2 20.4l-.6 2.8h-26.6l-1.2 5.2c-.6 2.9-1.4 8.1-1.7 11.5-.6 5.9-.5 6.3 1.5 6.3 2.6 0 4.8-3.2 5.6-8.5.4-2.2.9-5.2 1.2-6.8l.6-2.7h9.9c5.4 0 9.9.1 9.9.3 0 2.4-2.6 12.9-3.7 15.2-4.2 8.3-12.4 13.6-22.3 14.3-15.9 1.1-25.2-7-23.4-20.3 2-13.9 5.8-32.6 7.5-36.6 1.1-2.5 3.5-6.1 5.4-7.9 6.1-5.9 18.5-8.5 28-5.9zm164.8 0c2.1.5 5.2 2.3 7 3.9 3.1 2.8 3.2 3 3.1 11.2-.1 6.7-4.3 34.3-8 52.1l-.6 2.7h-21l.7-3.3c.6-3.1.6-3.1-.9-1.1-2 2.8-7.6 5.4-11.6 5.4-4.8 0-9.6-2.7-11.1-6.2-1.5-3.7.2-16.9 3.1-23.4 1.9-4.4 4.3-5.9 19.5-12.1 7.9-3.2 9.5-5.3 9.5-12.6 0-3.4-.4-4.9-1.6-5.4-2.6-1-4.4 2-5.6 9l-1.1 6.7h-18.9l.6-4.8c.4-2.6 1.9-7.2 3.4-10.2 2.2-4.4 3.8-6.1 8.1-8.7 2.9-1.8 6.5-3.4 8-3.6 5.4-.8 13.7-.7 17.4.4zm204.3 1.1c6 2.5 16.4 10 16.4 11.7 0 1-.2 2-.5 2.3-.3.3-4.1-1.8-8.5-4.8-8.9-5.9-13.2-7-24.2-6.1-6.2.5-6.9.4-6.6-1.1.7-3.8 16.2-5.1 23.4-2zM410 20.7c0 1-.7 10.8-1.5 21.8-2.2 30.2-2.6 30.5 7-5.8l4.8-17.7h9.4c7.2 0 9.4.3 9.1 1.2-.3.7-1.2 3.5-2.1 6.3-.9 2.7-5.7 17.7-10.7 33.2L416.9 88h-27.2l.6-21.8c.4-11.9.7-27.4.7-34.5V19h9.5c8.4 0 9.5.2 9.5 1.7zm303 3.2c0 .7-5.1 3.1-6.7 3.1-1.1 0 1.2-2.2 3.1-3 2.8-1.2 3.6-1.2 3.6-.1zm26 2.6c6.5 2.3 18 10.3 18 12.6 0 2.8-1.5 2.4-9.9-3-9-5.7-15.7-7.6-24.1-6.6-5 .6-6 .5-6-.9 0-.8.8-2 1.8-2.5 2.6-1.6 15.4-1.3 20.2.4zm-23.4 2.9c1.2 3.2-5.1 10.4-7.3 8.2-.3-.3-1.4.5-2.3 1.7-1 1.2-2.1 1.9-2.5 1.5-1.2-1.2.4-4 2.5-4.5 1.1-.3 2-1.2 2-2 0-.9-.6-1.3-1.5-.9-1.9.7-2-1.7-.1-3.3.7-.6 2-.9 2.9-.5.8.3 1.8.1 2.2-.5.9-1.6 3.5-1.4 4.1.3zm25.9 7c9.2 4.6 14.1 8.7 13.2 11-.6 1.6-1 1.7-3 .4-1.2-.8-5.5-3.4-9.6-5.8-7.2-4.3-7.7-4.4-17-4.7-9.4-.3-11.5-1-8.9-3 4.2-3.5 16-2.5 25.3 2.1zm-8.4 5.2c7.4 2.2 19.9 10 19.9 12.5 0 1-.5 1.9-1 1.9-.6 0-5.1-2.3-10-5.1-8.6-4.9-9.5-5.2-17.8-5.6-5.8-.3-11.2 0-16.1 1.1-4.1.9-7.7 1.3-8 1.1-1.2-1.3 3.4-4 9.6-5.6 8.6-2.2 16.4-2.3 23.4-.3zm-1 8.4c6.5 2 19 9.5 19.7 11.7.9 2.9-3.1 2.2-9.9-1.8-4-2.3-9.3-4.8-11.7-5.6-7.1-2.1-21.7-1.5-30.4 1.3-1.3.4-1.8 0-1.8-1.5 0-2 3.2-3.3 12.5-5.4 5.2-1.2 15.7-.6 21.6 1.3zm-4 7.6c6.5 1.9 18.1 7.8 20.5 10.5 1.4 1.5 1.5 2.2.6 3.1-1 1-3.2.2-10-3.4-4.8-2.5-11.4-5.2-14.7-5.8-6.2-1.3-20.3-.8-26.3 1-2.4.6-3.2.5-3.2-.4 0-5.2 21.4-8.4 33.1-5zm-1 8.8c5.9 1.8 18.1 8 19.8 10 1.3 1.5.8 3.6-.9 3.6-.5 0-4.7-1.8-9.2-4.1-9.2-4.5-19.1-7.2-25.3-6.8-2.2.1-4.8.1-5.8 0-2.7-.2-1.7-3.4 1.3-4.3 3.4-1 14.4-.1 20.1 1.6zm-27.1.9c0 2-2.2 3.7-4.7 3.7-2.7 0-3.1-2.4-.5-3.9 2.4-1.5 5.2-1.3 5.2.2zm23.3 7.3c6.3 1.6 21.1 8.6 22.2 10.5.4.6.1 1.7-.7 2.5-1.3 1.3-2.6.9-10.4-2.9-10-5-16.6-6.7-25.8-6.7-7 0-8-.4-6.5-3.1.8-1.6 2.2-1.9 8-1.9 3.9 0 9.8.7 13.2 1.6zm-25.3 0c0 2.3-2.4 4.4-5 4.4-3.3 0-3.8-1.1-1.4-3.4 1.4-1.5 6.4-2.3 6.4-1zM35 113.4c0 7.4.4 10.6 1.3 10.9.6.3-.6.5-2.8.5-2.2 0-3.4-.2-2.7-.5.8-.3 1.2-3.2 1.2-9.4 0-6.4-.3-8.9-1.2-8.9-1.4-.1 2-3 3.4-3 .4 0 .8 4.7.8 10.4zm8-3.4v7.1l2.5-1.8c1.3-1 2.2-2.4 2-3.1-.3-.8.6-1.2 2.8-1.1 2.7 0 2.9.2 1.2.9-1.1.5-3 1.7-4.2 2.7l-2.2 1.8 3.4 3.6c1.8 2 3.9 3.9 4.7 4.2.7.3-.4.6-2.5.6-2.1.1-3.6-.3-3.2-.8.3-.5-.6-2.2-2-3.8l-2.4-2.8-.1 3.2c0 1.7.6 3.4 1.3 3.6.6.3-.6.5-2.8.5-2.2 0-3.4-.2-2.7-.5.8-.3 1.2-3.2 1.2-9.4 0-6.4-.3-8.9-1.2-8.9-1.4-.1 2-3 3.4-3 .4 0 .8 3.2.8 7zm48-5.5c0 .8-.7 1.5-1.5 1.5s-1.5-.7-1.5-1.5.7-1.5 1.5-1.5 1.5.7 1.5 1.5zm17 3.5c0 4.9 0 4.9 2.5 3.8 3.8-1.7 5.5.4 5.5 6.7 0 3.3.5 5.5 1.3 5.8.6.3-.1.6-1.8.6-3 .1-3 .1-3-5.6 0-5.1-.2-5.8-2-5.8-1.7 0-2 .8-2.3 4.9-.2 3.2.1 5.2 1 5.7.8.6-.2.8-2.7.8-2.2 0-3.4-.3-2.7-.6.8-.3 1.2-3.2 1.2-9.4 0-6.4-.3-8.9-1.2-8.9-1.4-.1 2-3 3.4-3 .4 0 .8 2.2.8 5zm32 0c0 4.9 0 4.9 2.5 3.8 3.8-1.7 5.5.4 5.5 6.7 0 3.3.5 5.5 1.3 5.8.6.3-.1.6-1.8.6-3 .1-3 .1-3-5.6 0-5.1-.2-5.8-2-5.8-1.7 0-2 .8-2.3 4.9-.2 3.2.1 5.2 1 5.7.8.6-.2.8-2.7.8-2.2 0-3.4-.3-2.7-.6.8-.3 1.2-3.2 1.2-9.4 0-6.4-.3-8.9-1.2-8.9-1.4-.1 2-3 3.4-3 .4 0 .8 2.2.8 5zm104 5.4c0 7.4.4 10.6 1.3 10.9.6.3-.6.5-2.8.5-2.2 0-3.4-.2-2.7-.5.8-.3 1.2-3.2 1.2-9.4 0-6.4-.3-8.9-1.2-8.9-1.4-.1 2-3 3.4-3 .4 0 .8 4.7.8 10.4zm106.4-9.8c.9.3 1.6 1.2 1.6 2 0 1.8-.9 1.8-3.1-.2-2.3-2.1-3.9-1-3.9 2.7 0 2.3.5 2.9 2.3 3l2.2.2-2.2.4c-2.1.4-2.3 1-2.3 5.8 0 4.1.4 5.6 1.8 6.4 1.3.8.6 1-3.3 1s-4.6-.2-3.2-1c1.3-.8 1.7-2.3 1.7-6.4 0-4.5-.3-5.5-1.7-5.6-1.7-.1-1.7-.2 0-.6.9-.2 1.7-1.3 1.7-2.4 0-2.2 3.4-5.9 5.4-5.9.8 0 2.1.3 3 .6zM371 108c0 4.9 0 4.9 2.5 3.8 3.8-1.7 5.5.4 5.5 6.7 0 3.3.5 5.5 1.3 5.8.6.3-.1.6-1.8.6-3 .1-3 .1-3-5.6 0-5.1-.2-5.8-2-5.8-1.7 0-2 .8-2.3 4.9-.2 3.2.1 5.2 1 5.7.8.6-.2.8-2.7.8-2.2 0-3.4-.3-2.7-.6.8-.3 1.2-3.2 1.2-9.4 0-6.4-.3-8.9-1.2-8.9-1.4-.1 2-3 3.4-3 .4 0 .8 2.2.8 5zm-182.1-2.6c5.7 3 6.8 10.7 2.2 15.8-2.8 3.1-3.3 3.3-11.3 3.6-6.3.2-7.9 0-6.5-.8 1.4-.9 1.7-2.6 1.7-9.5s-.3-8.6-1.7-9.4c-2.9-1.7 12.3-1.4 15.6.3zm230 1.3c0 2.7-.1 2.7-.9.5-.8-1.8-1.7-2.2-5-2.2h-4v4.5c0 4.1.2 4.5 2.5 4.5 1.3 0 2.9-.8 3.4-1.8.8-1.3 1-.9 1 2.3 0 3.2-.2 3.6-1 2.2-.5-.9-2.1-1.7-3.4-1.7-2.2 0-2.5.4-2.5 4 0 2.7.6 4.2 1.8 4.9 1.3.8.6 1-3.3 1s-4.6-.2-3.2-1c1.4-.8 1.7-2.5 1.7-9.4s-.3-8.6-1.7-9.4c-1.3-.8.4-1 6.5-1.1h8.2l-.1 2.7zm-318.1 4.4c1.5.1 1.5.2 0 .6-1.5.4-1.8 1.6-1.8 6 0 5.1.2 5.5 2.1 5 1.7-.5 1.8-.3.8.9-.7.8-2.2 1.4-3.3 1.2-1.8-.3-2.1-1.1-2.4-6.6-.2-3.4-.7-6.2-1.3-6.2-.5 0 .1-1.4 1.3-3.1l2.3-3.1.3 2.6c.2 1.6 1 2.6 2 2.7zm32 0c1.5.1 1.5.2 0 .6-1.5.4-1.8 1.6-1.8 6 0 5.1.2 5.5 2.1 5 1.7-.5 1.8-.3.8.9-.7.8-2.2 1.4-3.3 1.2-1.8-.3-2.1-1.1-2.4-6.6-.2-3.4-.7-6.2-1.3-6.2-.5 0 .1-1.4 1.3-3.1l2.3-3.1.3 2.6c.2 1.6 1 2.6 2 2.7zm231 0c1.5.1 1.5.2 0 .6-1.5.4-1.8 1.6-1.8 6 0 5.1.2 5.5 2.1 5 1.7-.5 1.8-.3.8.9-.7.8-2.2 1.4-3.3 1.2-1.8-.3-2.1-1.1-2.4-6.6-.2-3.4-.7-6.2-1.3-6.2-.5 0 .1-1.4 1.3-3.1l2.3-3.1.3 2.6c.2 1.6 1 2.6 2 2.7zm79 0c1.5.1 1.5.2 0 .6-1.5.4-1.8 1.6-1.8 6 0 5.1.2 5.5 2.1 5 1.7-.5 1.8-.3.8.9-.7.8-2.2 1.4-3.3 1.2-1.8-.3-2.1-1.1-2.4-6.6-.2-3.4-.7-6.2-1.3-6.2-.5 0 .1-1.4 1.3-3.1l2.3-3.1.3 2.6c.2 1.6 1 2.6 2 2.7zm-417 1.1c.7.7 1.2 3.4 1.2 6.1 0 3.6.3 4.6 1.3 4.1.6-.4.4.1-.5 1.2-1.3 1.3-2.1 1.5-2.9.7-.8-.8-1.8-.9-3.6 0-1.9.8-2.7.7-4-.5-2.2-2.3-1-4.6 3.3-6.4 2.4-1 3.4-2 3.2-3.2-.5-2.6-3.8-2.8-3.8-.3 0 1.2-.6 2.1-1.5 2.1-.8 0-1.5-.6-1.5-1.3 0-2.1 2.2-3.7 5-3.7 1.4 0 3.1.5 3.8 1.2zm41.7-.2c-.4.6.1 3.1 1.1 5.6l1.7 4.6 1.8-3.4c2.2-4.1 2.3-4.3.3-6.2-1.4-1.5-1.3-1.6 1.6-1.6 2 0 2.9.4 2.4 1.1-.3.6.2 2.9 1.2 5.1l1.8 3.9 1.6-4.3c1.1-2.9 1.3-4.5.6-5-.6-.4-.1-.8 1.2-.8 2.1 0 2.1.2.8 2.2-.7 1.3-1.9 4.1-2.6 6.3-1.8 5.9-2.6 6.2-4.7 1.4l-2-4.4-2.2 4.2c-1.2 2.4-2.3 4.3-2.6 4.3-.3 0-2-3.2-3.8-7l-3.3-7h2.8c1.7 0 2.7.4 2.3 1zm23.5 5.4c0 4.2.4 6.6 1.3 6.9.6.3-.6.5-2.8.5-2.2 0-3.4-.2-2.7-.5.7-.3 1.2-2.4 1.2-5.4 0-3.2-.4-4.9-1.2-4.9-1.4-.1 2-3 3.4-3 .4 0 .8 2.9.8 6.4zm70.4-4.8c2.6 2.6 1.8 3.4-3.4 3.4-5.4 0-6.2 1-3.3 4.2 2 2.2 4.1 2.3 6.5.1 2.2-2 2.4-.6.2 2.5-3.2 4.6-10.4 1.2-10.4-4.8 0-5.7 6.7-9.2 10.4-5.4zm45 0c2.6 2.6 1.8 3.4-3.4 3.4-5.4 0-6.2 1-3.3 4.2 2 2.2 4.1 2.3 6.5.1 2.2-2 2.4-.6.2 2.5-3.2 4.6-10.4 1.2-10.4-4.8 0-5.7 6.7-9.2 10.4-5.4zm7.9-.8c-.8.5-.6 2 .9 5.5l2.1 4.8 1.9-4.3c1-2.3 1.6-4.8 1.4-5.5-.3-.8.2-1.3 1.2-1.3 1.6 0 1.4.8-1.4 6.6-1.7 3.6-3.4 6.6-3.8 6.7-.4.1-2.1-2.8-3.9-6.6l-3.3-6.7h3c1.8 0 2.6.4 1.9.8zm21.1.8c2.6 2.6 1.8 3.4-3.4 3.4-5.4 0-6.2 1-3.3 4.2 2 2.2 4.1 2.3 6.5.1 2.2-2 2.4-.6.2 2.5-3.2 4.6-10.4 1.2-10.4-4.8 0-5.7 6.7-9.2 10.4-5.4zm24.6.6c2.6 2.8 2.6 5.8-.1 9.2-3.7 4.7-11.9 2.1-11.9-4 0-6.2 7.8-9.6 12-5.2zm8-1.3c0 .5 1.4.4 3.1-.2 2.8-1.1 3.3-1 5 1.2 4 5 .7 12.7-5.2 11.9-2.7-.4-2.9-.2-2.9 2.8 0 1.8.6 3.5 1.3 3.7.6.3-.6.5-2.8.5-2.2 0-3.4-.2-2.7-.5.8-.3 1.2-3.1 1.2-8.9 0-6-.4-8.4-1.2-8.4-.8 0-.5-.7.6-1.5 2.3-1.7 3.6-1.9 3.6-.6zm22.4.7c2.6 2.6 1.8 3.4-3.4 3.4-5.4 0-6.2 1-3.3 4.2 2 2.2 4.1 2.3 6.5.1 2.2-2 2.4-.6.2 2.5-3.2 4.6-10.4 1.2-10.4-4.8 0-5.7 6.7-9.2 10.4-5.4zm7.7-.4c.1.7.1 3.5-.1 6.2-.1 3.2.3 5.1 1.1 5.7.9.6 0 .8-2.6.8-2.2 0-3.4-.3-2.7-.6.7-.3 1.2-2.4 1.2-5.4 0-3.2-.4-4.9-1.2-4.9-.8 0-.5-.7.6-1.5 2.4-1.8 3.6-1.9 3.7-.3zm5.4-.1c1 1.5-.1 2.2-2.4 1.4-1.2-.3-1.9-1.1-1.6-1.6.8-1.2 3.2-1.1 4 .2zm9.5 1.8v2.3l-1.8-2.2c-1.1-1.3-2.4-2-3-1.6-2 1.2-1.4 2.3 2.3 4.5 5.6 3.3 4.2 8.3-2.3 7.8-2.6-.2-3.2-.6-3.2-2.6v-2.3l1.8 2.3c1.2 1.4 2.5 2 3.5 1.6 2.6-1 2-2.3-1.8-4.6-5.4-3.1-4.3-8.2 1.6-7.8 2.3.2 2.9.7 2.9 2.6zm23-.7c2.6 2.8 2.6 5.8-.1 9.2-3.7 4.7-11.9 2.1-11.9-4 0-6.2 7.8-9.6 12-5.2zm56.4-.6c2.6 2.6 1.8 3.4-3.4 3.4-5.4 0-6.2 1-3.3 4.2 2 2.2 4.1 2.3 6.5.1 2.2-2 2.4-.6.2 2.5-3.2 4.6-10.4 1.2-10.4-4.8 0-5.7 6.7-9.2 10.4-5.4zm33.6 3.8c0 5.7.7 7 3.4 6 2-.8 2.3-10 .4-10.7-.7-.3-.1-.6 1.5-.6 2.6-.1 2.7.1 2.7 5.3 0 3.5.5 5.6 1.2 5.8.8.3.3 1-1.2 1.8-1.6.9-2.5 1-2.8.2-.2-.8-1-.8-2.7 0-3.8 1.7-5.5-.4-5.5-6.7 0-3.3-.5-5.5-1.2-5.8-.7-.3-.1-.6 1.5-.6 2.6-.1 2.7.1 2.7 5.3zm24 0c0 5.7.7 7 3.4 6 2-.8 2.3-10 .4-10.7-.7-.3-.1-.6 1.5-.6 2.6-.1 2.7.1 2.7 5.3 0 3.5.5 5.6 1.2 5.8.8.3.3 1-1.2 1.8-1.6.9-2.5 1-2.8.2-.2-.8-1-.8-2.7 0-3.8 1.7-5.5-.4-5.5-6.7 0-3.3-.5-5.5-1.2-5.8-.7-.3-.1-.6 1.5-.6 2.6-.1 2.7.1 2.7 5.3zm15.1-4.2c.1.7.1 3.5-.1 6.2-.1 3.2.3 5.1 1.1 5.7.9.6 0 .8-2.6.8-2.2 0-3.4-.3-2.7-.6.7-.3 1.2-2.4 1.2-5.4 0-3.2-.4-4.9-1.2-4.9-.8 0-.5-.7.6-1.5 2.4-1.8 3.6-1.9 3.7-.3zm5.4-.1c1 1.5-.1 2.2-2.4 1.4-1.2-.3-1.9-1.1-1.6-1.6.8-1.2 3.2-1.1 4 .2zm11.9.5c2.6 2.6 1.8 3.4-3.4 3.4-5.4 0-6.2 1-3.3 4.2 2 2.2 4.1 2.3 6.5.1 2.2-2 2.4-.6.2 2.5-3.2 4.6-10.4 1.2-10.4-4.8 0-5.7 6.7-9.2 10.4-5.4z"/><path d="M299.6 45c-2.7 15.4-4.6 28.3-4.2 28.7 1.4 1.4 6-2.2 6.8-5.2.4-1.7 2.6-13.4 4.8-25.9 4.2-24.1 4.2-25.6-.4-25.6-2 0-2.4 1.5-7 28zM165.3 58.2c-5.5 5.7-7.1 18-2.6 18.6 2.7.4 3.5-1.3 5.2-11.3.7-3.9 1.4-7.8 1.7-8.8.8-2.6-.9-2-4.3 1.5zM359.2 32.2c-.6 1.8-1.3 5-1.7 7-.6 3.7-.5 3.8 2.4 3.8 3.2 0 3.8-1.3 4.4-10 .2-2.9-.2-3.6-2-3.8-1.6-.2-2.3.4-3.1 3zM519.3 58.2c-5.5 5.7-7.1 18-2.6 18.6 2.7.4 3.5-1.3 5.2-11.3.7-3.9 1.4-7.8 1.7-8.8.8-2.6-.9-2-4.3 1.5zM178 114.5v9.5h3.6c5 0 9.4-4.5 9.4-9.5s-4.4-9.5-9.4-9.5H178v9.5zM21.3 118.3c-2.7 1.2-3 3.5-.7 4.4 2 .8 3.7-1 3.2-3.4-.2-1.7-.7-1.9-2.5-1zM154 113.5c-1.1 1.3-.8 1.5 2.5 1.5 2.5 0 3.5-.4 3.3-1.3-.7-1.8-4.3-2-5.8-.2zM199 113.5c-1.1 1.3-.8 1.5 2.5 1.5 2.5 0 3.5-.4 3.3-1.3-.7-1.8-4.3-2-5.8-.2zM228 113.5c-1.1 1.3-.8 1.5 2.5 1.5 2.5 0 3.5-.4 3.3-1.3-.7-1.8-4.3-2-5.8-.2zM252.2 113.2c-1.8 1.8-1.4 6.3.7 8.9 1.6 2 2.3 2.2 3.8 1.3 2.5-1.5 2.9-7.1.7-9.5-2-2.2-3.5-2.4-5.2-.7zM269.3 113.7c-2 .8-1.7 9.2.3 10 3.9 1.5 6.8-4.2 4.4-8.7-1.1-2-2.3-2.3-4.7-1.3zM283 113.5c-1.1 1.3-.8 1.5 2.5 1.5 2.5 0 3.5-.4 3.3-1.3-.7-1.8-4.3-2-5.8-.2zM328.2 113.2c-1.8 1.8-1.4 6.3.7 8.9 1.6 2 2.3 2.2 3.8 1.3 2.5-1.5 2.9-7.1.7-9.5-2-2.2-3.5-2.4-5.2-.7zM385 113.5c-1.1 1.3-.8 1.5 2.5 1.5 2.5 0 3.5-.4 3.3-1.3-.7-1.8-4.3-2-5.8-.2zM475 113.5c-1.1 1.3-.8 1.5 2.5 1.5 2.5 0 3.5-.4 3.3-1.3-.7-1.8-4.3-2-5.8-.2zM748 1.6c25.4 6.8 45.6 28.8 51.5 55.8 1.2 5.6 1.3 3.3 1.4-25.7L801 0l-29.2.1c-27.7 0-29 .1-23.8 1.5z"/></svg>