<?xml version="1.0" standalone="no"?>
<!DOCTYPE svg PUBLIC "-//W3C//DTD SVG 20010904//EN" "http://www.w3.org/TR/2001/REC-SVG-20010904/DTD/svg10.dtd">
<svg version="1.0" xmlns="http://www.w3.org/2000/svg" width="801.000000pt" height="149.000000pt" viewBox="0 0 801.000000 149.000000" preserveAspectRatio="xMidYMid meet">
    <g transform="translate(0.000000,149.000000) scale(0.100000,-0.100000)"  stroke="none" fill="#212529" >
        <path d="M0 970 l0 -520 85 0 85 0 -1 -27 c0 -28 -1 -28 -11 -5 -7 13 -20 22 -35 22 -22 0 -23 -2 -23 -90 0 -74 3 -91 18 -99 13 -8 6 -10 -33 -10 -39 0 -46 2 -33 10 15 8 18 25 18 99 0 88 -1 90 -23 90 -40 0 -47 -34 -47 -245 l0 -195 4005 0 4005 0 -1 323 c-1 292 -2 316 -14 262 -65 -297 -292 -518 -584 -569 -31 -5 -33 -4 -28 17 12 54 37 137 57 190 18 48 27 60 58 73 74 30 112 89 112 171 0 17 4 34 9 37 8 5 18 46 25 106 1 14 5 32 9 40 3 8 8 29 12 45 3 17 10 50 16 75 6 25 12 54 14 65 3 11 12 52 20 90 27 117 30 187 9 231 -22 46 -191 224 -231 243 -15 7 -40 20 -55 27 -34 18 -93 18 -160 0 -118 -31 -179 -71 -213 -140 -14 -27 -25 -58 -25 -68 0 -10 -4 -26 -9 -36 -11 -23 -32 -83 -36 -102 -1 -8 -7 -28 -13 -43 -7 -15 -11 -31 -10 -35 1 -4 -3 -17 -10 -30 -7 -12 -12 -28 -10 -35 1 -6 -4 -23 -11 -36 -7 -12 -11 -31 -8 -40 2 -9 -2 -22 -10 -29 -7 -7 -13 -22 -13 -33 0 -12 -6 -33 -14 -47 -21 -41 -46 -135 -46 -173 0 -51 70 -126 173 -185 45 -26 84 -48 86 -50 3 -2 -8 -49 -23 -104 -27 -94 -29 -131 -11 -173 7 -18 6 -18 -31 -2 -66 27 -172 105 -232 170 -241 264 -266 663 -60 963 87 127 251 241 395 276 50 12 -438 14 -3544 15 l-3603 1 0  -520z m541 469 c60 -33 71 -58 65 -147 -3 -41 -8 -78 -12 -83 -3 -5 -49 -9 -103 -9 l-98 0 10 50 c11 57 5 80 -21 80 -26 0 -49 -29 -57 -72 -10 -55 1 -74 68 -120 145 -98 175 -147 162 -262 -24 -205 -102 -281 -290 -281 -102 0 -169 24 -201 73 -20 30 -25 113 -11 195 l8 47 101 0 100 0 -8 -47 c-4 -27 -8 -66 -8 -88 -1 -36 2 -40 26 -43 33 -4 54 24 64 85 10 66 0 85 -73 139 -120 87 -141 110 -153 167 -9 42 -9 66 4 126 18 87 38 123 88 164 52 42 117 58 215 53 62 -3 92 -9 124 -27z m1755 -6 c-4 -16 -35 -194 -71 -398 -36 -203 -68 -382 -71 -398 l-6 -27 -110 0 -110 0 6 27 c3 16 33 183 66 373 33 190 65 369 71 398 l10 52 111 0 110 0 -6 -27z m290 0 c-4 -16 -35 -194 -71 -398 -36 -203 -68 -382 -71 -398 l-6 -27 -110 0 -110 0 6 27 c3 16 33 183 66 373 33 190 65 369 71 398 l10 52 111 0 110 0 -6 -27z m609 17 c73 -12 106 -35 124 -87 13 -37 12 -56 -18 -234 -69 -413 -83 -455 -156 -493 -36 -19 -60 -21 -243 -24 l-204 -3 6 28 c3 15 33 183 66 373 33 190 65 369 71 398 l10 52 142 0 c78 0 169 -5 202 -10z m1885 8 c0 -2 -7 -38 -15 -81 -8 -43 -15 -81 -15 -83 0 -2 -27 -4 -59 -4 l-60 0 -10 -52 c-6 -29 -31 -170 -56 -313 -25 -143 -48 -272 -51 -288 l-6 -27 -110 0 -110 0 6 27 c3 16 28 156 56 313 27 157 52 297 56 313 l6 27 -67 0 -67 0 6 28 c3 15 10 53 16 85 l11 57 235 0 c129 0 234 -1 234 -2z m756 -25 c-4 -16 -35 -194 -71 -398 -36 -203 -68 -382 -71 -398 l-6 -27 -110 0 -110 0 6 27 c3 16 33 183 66 373 33 190 65 369 71 398 l10 52 111 0 110 0 -6 -27z m280 0 c-15 -73 -47 -286 -44 -295 2 -6 22 28 43 75 l40 87 88 0 87 0 -14 -32 c-8 -18 -37 -81 -65 -139 l-50 -106 14 -199 c8 -110 15 -202 15 -206 0 -5 -45 -8 -100 -8 l-100 0 -1 148 -1 147 -19 -95 c-10 -52 -24 -119 -30 -147 l-10 -53 -106 0 -105 0 6 27 c3 16 33 183 66 373 33 190 65 369 71 398 l10 52 106 0 105 0 -6 -27z m-5009 -132 c17 -11 34 -29 38 -41 l7 -22 26 25 c81 75 197 75 231 0 17 -38 14 -71 -39 -368 -27 -154 -50 -281 -50 -282 0 -2 -45 -3 -101 -3 l-101 0 6 28 c26 127 86 490 86 522 0 34 -3 40 -21 40 -31 0 -42 -40 -88 -300 -23 -129 -44 -247 -47 -262 l-6 -28 -100 0 -100 0 6 27 c3 16 23 129 45 253 37 209 45 266 42 298 -1 16 -36 15 -50 -2 -8 -10 -110 -536 -111 -573 0 -2 -45 -3 -101 -3 l-101 0 6 27 c8 37 116 652 116 658 0 3 46 5 101 5 l102 0 -6 -29 -6 -29 24 24 c54 54 136 68 192 35z m726 8 c21 -5 52 -23 70 -39 31 -28 32 -30 31 -112 -1 -67 -43 -343 -80 -521 l-6 -27 -105 0 -105 0 7 33 c6 31 6 31 -9 11 -20 -28 -76 -54 -116 -54 -48 0 -96 27 -111 62 -15 37 2 169 31 234 19 44 43 59 195 121 79 32 95 53 95 126 0 34 -4 49 -16 54 -26 10 -44 -20 -56 -90 l-11 -67 -95 0 -94 0 6 48 c4 26 19 72 34 102 22 44 38 61 81 87 29 18 65 34 80 36 54 8 137 7 174 -4z m1892 0 c56 -16 110 -73 119 -127 5 -37 -2 -117 -20 -204 l-6 -28 -133 0 -133 0 -12 -52 c-6 -29 -14 -81 -17 -115 -6 -59 -5 -63 15 -63 26 0 48 32 56 85 4 22 9 52 12 68 l6 27 99 0 c54 0 99 -1 99 -3 0 -24 -26 -129 -37 -152 -42 -83 -124 -136 -223 -143 -159 -11 -252 70 -234 203 20 139 58 326 75 366 11 25 35 61 54 79 61 59 185 85 280 59z m1648 0 c21 -5 52 -23 70 -39 31 -28 32 -30 31 -112 -1 -67 -43 -343 -80 -521 l-6 -27 -105 0 -105 0 7 33 c6 31 6 31 -9 11 -20 -28 -76 -54 -116 -54 -48 0 -96 27 -111 62 -15 37 2 169 31 234 19 44 43 59 195 121 79 32 95 53 95 126 0 34 -4 49 -16 54 -26 10 -44 -20 -56 -90 l-11 -67 -95 0 -94 0 6 48 c4 26 19 72 34 102 22 44 38 61 81 87 29 18 65 34 80 36 54 8 137 7 174 -4z m2043 -11 c60 -25 164 -100 164 -117 0 -10 -2 -20 -5 -23 -3 -3 -41 18 -85 48 -89 59 -132 70 -242 61 -62 -5 -69 -4 -66 11 7 38 162 51 234 20z m-3316 -15 c0 -10 -7 -108 -15 -218 -22 -302 -26 -305 70 58 l48 177 94 0 c72 0 94 -3 91 -12 -3 -7 -12 -35 -21 -63 -9 -27 -57 -177 -107 -332 l-91 -283 -136 0 -136 0 6 218 c4 119 7 274 7 345 l0 127 95 0 c84 0 95 -2 95 -17z m3030 -32 c0 -7 -51 -31 -67 -31 -11 0 12 22 31 30 28 12 36 12 36 1z m260 -26 c65 -23 180 -103 180 -126 0 -28 -15 -24 -99 30 -90 57 -157 76 -241 66 -50 -6 -60 -5 -60 9 0 8 8 20 18 25 26 16 154 13 202 -4z m-234 -29 c12 -32 -51 -104 -73 -82 -3 3 -14 -5 -23 -17 -10 -12 -21 -19 -25 -15 -12 12 4 40 25 45 11 3 20 12 20 20 0 9 -6 13 -15 9 -19 -7 -20 17 -1 33 7 6 20 9 29 5 8 -3 18 -1 22 5 9 16 35 14 41 -3z m259 -70 c92 -46 141 -87 132 -110 -6 -16 -10 -17 -30 -4 -12 8 -55 34 -96 58 -72 43 -77 44 -170 47 -94 3 -115 10 -89 30 42 35 160 25 253 -21z m-84 -52 c74 -22 199 -100 199 -125 0 -10 -5 -19 -10 -19 -6 0 -51 23 -100 51 -86 49 -95 52 -178 56 -58 3 -112 0 -161 -11 -41 -9 -77 -13 -80 -11 -12 13 34 40 96 56 86 22 164 23 234 3z m-10 -84 c65 -20 190 -95 197 -117 9 -29 -31 -22 -99 18 -40 23 -93 48 -117 56 -71 21 -217 15 -304 -13 -13 -4 -18 0 -18 15 0 20 32 33 125 54 52 12 157 6 216 -13z m-40 -76 c65 -19 181 -78 205 -105 14 -15 15 -22 6 -31 -10 -10 -32 -2 -100 34 -48 25 -114 52 -147 58 -62 13 -203 8 -263 -10 -24 -6 -32 -5 -32 4 0 52 214 84 331 50z m-10 -88 c59 -18 181 -80 198 -100 13 -15 8 -36 -9 -36 -5 0 -47 18 -92 41 -92 45 -191 72 -253 68 -22 -1 -48 -1 -58 0 -27 2 -17 34 13 43 34 10 144 1 201 -16z m-271 -9 c0 -20 -22 -37 -47 -37 -27 0 -31 24 -5 39 24 15 52 13 52 -2z m233 -73 c63 -16 211 -86 222 -105 4 -6 1 -17 -7 -25 -13 -13 -26 -9 -104 29 -100 50 -166 67 -258 67 -70 0 -80 4 -65 31 8 16 22 19 80 19 39 0 98 -7 132 -16z m-253 0 c0 -23 -24 -44 -50 -44 -33 0 -38 11 -14 34 14 15 64 23 64 10z m-6630 -388 c0 -74 4 -106 13 -109 6 -3 -6 -5 -28 -5 -22 0 -34 2 -27 5 8 3 12 32 12 94 0 64 -3 89 -12 89 -14 1 20 30 34 30 4 0 8 -47 8 -104z m80 34 l0 -71 25 18 c13 10 22 24 20 31 -3 8 6 12 28 11 27 0 29 -2 12 -9 -11 -5 -30 -17 -42 -27 l-22 -18 34 -36 c18 -20 39 -39 47 -42 7 -3 -4 -6 -25 -6 -21 -1 -36 3 -32 8 3 5 -6 22 -20 38 l-24 28 -1 -32 c0 -17 6 -34 13 -36 6 -3 -6 -5 -28 -5 -22 0 -34 2 -27 5 8 3 12 32 12 94 0 64 -3 89 -12 89 -14 1 20 30 34 30 4 0 8 -32 8 -70z m480 55 c0 -8 -7 -15 -15 -15 -8 0 -15 7 -15 15 0 8 7 15 15 15 8 0 15 -7 15 -15z m170 -35 c0 -49 0 -49 25 -38 38 17 55 -4 55 -67 0 -33 5 -55 13 -58 6 -3 -1 -6 -18 -6 -30 -1 -30 -1 -30 56 0 51 -2 58 -20 58 -17 0 -20 -8 -23 -49 -2 -32 1 -52 10 -57 8 -6 -2 -8 -27 -8 -22 0 -34 3 -27 6 8 3 12 32 12 94 0 64 -3 89 -12 89 -14 1 20 30 34 30 4 0 8 -22 8 -50z m320 0 c0 -49 0 -49 25 -38 38 17 55 -4 55 -67 0 -33 5 -55 13 -58 6 -3 -1 -6 -18 -6 -30 -1 -30 -1 -30 56 0 51 -2 58 -20 58 -17 0 -20 -8 -23 -49 -2 -32 1 -52 10 -57 8 -6 -2 -8 -27 -8 -22 0 -34 3 -27 6 8 3 12 32 12 94 0 64 -3 89 -12 89 -14 1 20 30 34 30 4 0 8 -22 8 -50z m1040 -54 c0 -74 4 -106 13 -109 6 -3 -6 -5 -28 -5 -22 0 -34 2 -27 5 8 3 12 32 12 94 0 64 -3 89 -12 89 -14 1 20 30 34 30 4 0 8 -47 8 -104z m1064 98 c9 -3 16 -12 16 -20 0 -18 -9 -18 -31 2 -23 21 -39 10 -39 -27 0 -23 5 -29 23 -30 l22 -2 -22 -4 c-21 -4 -23 -10 -23 -58 0 -41 4 -56 18 -64 13 -8 6 -10 -33 -10 -39 0 -46 2 -32 10 13 8 17 23 17 64 0 45 -3 55 -17 56 -17 1 -17 2 0 6 9 2 17 13 17 24 0 22 34 59 54 59 8 0 21 -3 30 -6z m206 -44 c0 -49 0 -49 25 -38 38 17 55 -4 55 -67 0 -33 5 -55 13 -58 6 -3 -1 -6 -18 -6 -30 -1 -30 -1 -30 56 0 51 -2 58 -20 58 -17 0 -20 -8 -23 -49 -2 -32 1 -52 10 -57 8 -6 -2 -8 -27 -8 -22 0 -34 3 -27 6 8 3 12 32 12 94 0 64 -3 89 -12 89 -14 1 20 30 34 30 4 0 8 -22 8 -50z m-1821 26 c57 -30 68 -107 22 -158 -28 -31 -33 -33 -113 -36 -63 -2 -79 0 -65 8 14 9 17 26 17 95 0 69 -3 86 -17 94 -29 17 123 14 156 -3z m2300 -13 c0 -27 -1 -27 -9 -5 -8 18 -17 22 -50 22 l-40 0 0 -45 c0 -41 2 -45 25 -45 13 0 29 8 34 18 8 13 10 9 10 -23 0 -32 -2 -36 -10 -22 -5 9 -21 17 -34 17 -22 0 -25 -4 -25 -40 0 -27 6 -42 18 -49 13 -8 6 -10 -33 -10 -39 0 -46 2 -32 10 14 8 17 25 17 94 0 69 -3 86 -17 94 -13 8 4 10 65 11 l82 0 -1 -27z m-3181 -44 c15 -1 15 -2 0 -6 -15 -4 -18 -16 -18 -60 0 -51 2 -55 21 -50 17 5 18 3 8 -9 -7 -8 -22 -14 -33 -12 -18 3 -21 11 -24 66 -2 34 -7 62 -13 62 -5 0 1 14 13 31 l23 31 3 -26 c2 -16 10 -26 20 -27z m320 0 c15 -1 15 -2 0 -6 -15 -4 -18 -16 -18 -60 0 -51 2 -55 21 -50 17 5 18 3 8 -9 -7 -8 -22 -14 -33 -12 -18 3 -21 11 -24 66 -2 34 -7 62 -13 62 -5 0 1 14 13 31 l23 31 3 -26 c2 -16 10 -26 20 -27z m2310 0 c15 -1 15 -2 0 -6 -15 -4 -18 -16 -18 -60 0 -51 2 -55 21 -50 17 5 18 3 8 -9 -7 -8 -22 -14 -33 -12 -18 3 -21 11 -24 66 -2 34 -7 62 -13 62 -5 0 1 14 13 31 l23 31 3 -26 c2 -16 10 -26 20 -27z m790 0 c15 -1 15 -2 0 -6 -15 -4 -18 -16 -18 -60 0 -51 2 -55 21 -50 17 5 18 3 8 -9 -7 -8 -22 -14 -33 -12 -18 3 -21 11 -24 66 -2 34 -7 62 -13 62 -5 0 1 14 13 31 l23 31 3 -26 c2 -16 10 -26 20 -27z m-4170 -11 c7 -7 12 -34 12 -61 0 -36 3 -46 13 -41 6 4 4 -1 -5 -12 -13 -13 -21 -15 -29 -7 -8 8 -18 9 -36 0 -19 -8 -27 -7 -40 5 -22 23 -10 46 33 64 24 10 34 20 32 32 -5 26 -38 28 -38 3 0 -12 -6 -21 -15 -21 -8 0 -15 6 -15 13 0 21 22 37 50 37 14 0 31 -5 38 -12z m417 2 c-4 -6 1 -31 11 -56 l17 -46 18 34 c22 41 23 43 3 62 -14 15 -13 16 16 16 20 0 29 -4 24 -11 -3 -6 2 -29 12 -51 l18 -39 16 43 c11 29 13 45 6 50 -6 4 -1 8 12 8 21 0 21 -2 8 -22 -7 -13 -19 -41 -26 -63 -18 -59 -26 -62 -47 -14 l-20 44 -22 -42 c-12 -24 -23 -43 -26 -43 -3 0 -20 32 -38 70 l-33 70 28 0 c17 0 27 -4 23 -10z m235 -54 c0 -42 4 -66 13 -69 6 -3 -6 -5 -28 -5 -22 0 -34 2 -27 5 7 3 12 24 12 54 0 32 -4 49 -12 49 -14 1 20 30 34 30 4 0 8 -29 8 -64z m704 48 c26 -26 18 -34 -34 -34 -54 0 -62 -10 -33 -42 20 -22 41 -23 65 -1 22 20 24 6 2 -25 -32 -46 -104 -12 -104 48 0 57 67 92 104 54z m450 0 c26 -26 18 -34 -34 -34 -54 0 -62 -10 -33 -42 20 -22 41 -23 65 -1 22 20 24 6 2 -25 -32 -46 -104 -12 -104 48 0 57 67 92 104 54z m79 8 c-8 -5 -6 -20 9 -55 l21 -48 19 43 c10 23 16 48 14 55 -3 8 2 13 12 13 16 0 14 -8 -14 -66 -17 -36 -34 -66 -38 -67 -4 -1 -21 28 -39 66 l-33 67 30 0 c18 0 26 -4 19 -8z m211 -8 c26 -26 18 -34 -34 -34 -54 0 -62 -10 -33 -42 20 -22 41 -23 65 -1 22 20 24 6 2 -25 -32 -46 -104 -12 -104 48 0 57 67 92 104 54z m246 -6 c26 -28 26 -58 -1 -92 -37 -47 -119 -21 -119 40 0 62 78 96 120 52z m80 13 c0 -5 14 -4 31 2 28 11 33 10 50 -12 40 -50 7 -127 -52 -119 -27 4 -29 2 -29 -28 0 -18 6 -35 13 -37 6 -3 -6 -5 -28 -5 -22 0 -34 2 -27 5 8 3 12 31 12 89 0 60 -4 84 -12 84 -8 0 -5 7 6 15 23 17 36 19 36 6z m224 -7 c26 -26 18 -34 -34 -34 -54 0 -62 -10 -33 -42 20 -22 41 -23 65 -1 22 20 24 6 2 -25 -32 -46 -104 -12 -104 48 0 57 67 92 104 54z m77 4 c1 -7 1 -35 -1 -62 -1 -32 3 -51 11 -57 9 -6 0 -8 -26 -8 -22 0 -34 3 -27 6 7 3 12 24 12 54 0 32 -4 49 -12 49 -8 0 -5 7 6 15 24 18 36 19 37 3z m54 1 c10 -15 -1 -22 -24 -14 -12 3 -19 11 -16 16 8 12 32 11 40 -2z m95 -18 l0 -23 -18 22 c-11 13 -24 20 -30 16 -20 -12 -14 -23 23 -45 56 -33 42 -83 -23 -78 -26 2 -32 6 -32 26 l0 23 18 -23 c12 -14 25 -20 35 -16 26 10 20 23 -18 46 -54 31 -43 82 16 78 23 -2 29 -7 29 -26z m230 7 c26 -28 26 -58 -1 -92 -37 -47 -119 -21 -119 40 0 62 78 96 120 52z m564 6 c26 -26 18 -34 -34 -34 -54 0 -62 -10 -33 -42 20 -22 41 -23 65 -1 22 20 24 6 2 -25 -32 -46 -104 -12 -104 48 0 57 67 92 104 54z m336 -38 c0 -57 7 -70 34 -60 20 8 23 100 4 107 -7 3 -1 6 15 6 26 1 27 -1 27 -53 0 -35 5 -56 12 -58 8 -3 3 -10 -12 -18 -16 -9 -25 -10 -28 -2 -2 8 -10 8 -27 0 -38 -17 -55 4 -55 67 0 33 -5 55 -12 58 -7 3 -1 6 15 6 26 1 27 -1 27 -53z m240 0 c0 -57 7 -70 34 -60 20 8 23 100 4 107 -7 3 -1 6 15 6 26 1 27 -1 27 -53 0 -35 5 -56 12 -58 8 -3 3 -10 -12 -18 -16 -9 -25 -10 -28 -2 -2 8 -10 8 -27 0 -38 -17 -55 4 -55 67 0 33 -5 55 -12 58 -7 3 -1 6 15 6 26 1 27 -1 27 -53z m151 42 c1 -7 1 -35 -1 -62 -1 -32 3 -51 11 -57 9 -6 0 -8 -26 -8 -22 0 -34 3 -27 6 7 3 12 24 12 54 0 32 -4 49 -12 49 -8 0 -5 7 6 15 24 18 36 19 37 3z m54 1 c10 -15 -1 -22 -24 -14 -12 3 -19 11 -16 16 8 12 32 11 40 -2z m119 -5 c26 -26 18 -34 -34 -34 -54 0 -62 -10 -33 -42 20 -22 41 -23 65 -1 22 20 24 6 2 -25 -32 -46 -104 -12 -104 48 0 57 67 92 104 54z" />
        <path fill="#212529" d="M2996 1040 c-27 -154 -46 -283 -42 -287 14 -14 60 22 68 52 4 17 26 134 48 259 42 241 42 256 -4 256 -20 0 -24 -15 -70 -280z" />
        <path fill="#212529" d="M1653 908 c-55 -57 -71 -180 -26 -186 27 -4 35 13 52 113 7 39 14 78 17 88 8 26 -9 20 -43 -15z" />
        <path fill="#212529" d="M3592 1168 c-6 -18 -13 -50 -17 -70 -6 -37 -5 -38 24 -38 32 0 38 13 44 100 2 29 -2 36 -20 38 -16 2 -23 -4 -31 -30z" />
        <path fill="#212529" d="M5193 908 c-55 -57 -71 -180 -26 -186 27 -4 35 13 52 113 7 39 14 78 17 88 8 26 -9 20 -43 -15z" />
        <path fill="#212529" d="M1780 345 l0 -95 36 0 c50 0 94 45 94 95 0 50 -44 95 -94 95 l-36 0 0 -95z" />
        <path fill="#212529" d="M213 307 c-27 -12 -30 -35 -7 -44 20 -8 37 10 32 34 -2 17 -7 19 -25 10z" />
        <path fill="#212529" d="M1540 355 c-11 -13 -8 -15 25 -15 25 0 35 4 33 13 -7 18 -43 20 -58 2z" />
        <path fill="#212529" d="M1990 355 c-11 -13 -8 -15 25 -15 25 0 35 4 33 13 -7 18 -43 20 -58 2z" />
        <path fill="#212529" d="M2280 355 c-11 -13 -8 -15 25 -15 25 0 35 4 33 13 -7 18 -43 20 -58 2z" />
        <path fill="#212529" d="M2522 358 c-18 -18 -14 -63 7 -89 16 -20 23 -22 38 -13 25 15 29 71 7 95 -20 22 -35 24 -52 7z" />
        <path fill="#212529" d="M2693 353 c-20 -8 -17 -92 3 -100 39 -15 68 42 44 87 -11 20 -23 23 -47 13z" />
        <path fill="#212529" d="M2830 355 c-11 -13 -8 -15 25 -15 25 0 35 4 33 13 -7 18 -43 20 -58 2z" />
        <path fill="#212529" d="M3282 358 c-18 -18 -14 -63 7 -89 16 -20 23 -22 38 -13 25 15 29 71 7 95 -20 22 -35 24 -52 7z" />
        <path fill="#212529" d="M3850 355 c-11 -13 -8 -15 25 -15 25 0 35 4 33 13 -7 18 -43 20 -58 2z" />
        <path fill="#212529" d="M4750 355 c-11 -13 -8 -15 25 -15 25 0 35 4 33 13 -7 18 -43 20 -58 2z" />
        <path fill="#212529" d="M7480 1474 c254 -68 456 -288 515 -558 12 -56 13 -33 14 257 l1 317 -292 -1 c-277 0 -290 -1 -238 -15z" />
    </g>
</svg>