<?xml version="1.0" standalone="no"?>
<!DOCTYPE svg PUBLIC "-//W3C//DTD SVG 20010904//EN"
 "http://www.w3.org/TR/2001/REC-SVG-20010904/DTD/svg10.dtd">
<svg version="1.0" xmlns="http://www.w3.org/2000/svg"
 width="700.000000pt" height="700.000000pt" viewBox="0 0 700.000000 700.000000"
 preserveAspectRatio="xMidYMid meet">
<metadata>
Created by potrace 1.11, written by Peter Selinger 2001-2013
</metadata>
<g transform="translate(0.000000,700.000000) scale(0.100000,-0.100000)"
fill="#000000" stroke="none">
<path d="M3577 6644 c-1 -1 -34 -4 -74 -7 -40 -4 -101 -14 -135 -23 -35 -9
-74 -18 -88 -20 -14 -2 -36 -7 -50 -10 -14 -3 -36 -8 -50 -10 -66 -12 -171
-56 -249 -106 -24 -15 -48 -25 -53 -22 -16 10 -114 -25 -144 -51 -45 -40 -133
-99 -193 -130 -105 -53 -211 -189 -314 -405 -63 -132 -84 -198 -92 -290 -4
-43 -12 -74 -25 -90 -38 -48 -53 -94 -91 -268 -5 -23 -27 -81 -49 -127 -34
-71 -40 -95 -40 -149 0 -57 -4 -71 -38 -127 -52 -85 -66 -132 -64 -206 2 -51
-2 -68 -23 -98 -32 -47 -74 -137 -78 -167 -2 -13 2 -47 8 -76 l12 -53 -38 -48
c-66 -83 -79 -122 -74 -226 l4 -91 -34 -27 c-52 -41 -95 -149 -109 -273 -6
-52 -32 -120 -54 -143 -17 -17 -50 -83 -68 -135 -15 -42 -19 -60 -28 -152 -6
-52 -22 -107 -70 -240 -14 -38 -28 -88 -31 -110 -7 -59 -7 -267 1 -300 10 -42
69 -130 118 -178 23 -23 77 -83 120 -134 131 -156 226 -225 606 -440 118 -67
253 -146 300 -175 106 -66 103 -45 36 -312 -19 -77 -56 -212 -81 -300 -26 -88
-47 -164 -49 -170 -1 -5 -10 -35 -20 -66 -25 -83 -27 -97 -30 -184 -7 -197 79
-372 225 -461 l61 -37 576 -2 c318 -1 593 0 612 3 34 4 36 6 82 115 56 135 62
154 83 237 18 76 100 335 157 500 78 226 121 332 142 345 12 8 62 27 113 44
113 37 169 65 253 127 171 125 253 262 322 539 24 97 25 160 4 200 -24 45 -20
60 23 95 38 29 47 43 56 87 2 10 7 29 13 43 10 27 9 46 -3 124 -6 43 -4 52 23
90 48 68 53 82 58 194 5 95 9 115 39 178 35 74 42 105 46 209 1 38 10 76 24
105 22 43 28 69 40 170 9 75 16 101 45 190 16 47 31 112 34 145 8 81 14 110
37 177 10 32 21 81 24 110 10 97 16 122 50 225 19 56 37 131 39 165 3 35 15
90 26 123 21 62 26 82 36 155 3 25 8 49 11 53 3 5 7 75 9 155 5 225 -22 319
-150 517 -42 65 -171 233 -195 255 -3 3 -24 25 -45 50 -82 94 -189 201 -476
470 -192 181 -366 303 -470 330 -24 7 -76 29 -115 50 -38 21 -83 41 -100 44
-16 4 -41 9 -55 12 -23 5 -318 13 -323 8z m-22 -568 c228 -21 455 -99 680
-234 82 -49 278 -179 315 -209 8 -6 39 -30 67 -53 59 -45 133 -133 134 -158 0
-10 2 -28 5 -41 6 -31 -20 -59 -63 -67 -29 -5 -42 0 -101 41 -116 82 -434 290
-516 339 -149 88 -237 119 -401 140 -22 3 -49 8 -60 10 -39 8 -191 18 -270 19
-135 0 -255 -12 -360 -38 -161 -40 -193 -32 -180 45 14 83 130 150 300 174
101 15 118 18 151 29 37 13 170 15 299 3z m5 -362 c248 -47 440 -128 690 -289
252 -162 388 -265 420 -318 15 -24 19 -42 14 -72 -3 -22 -9 -44 -13 -48 -5 -5
-32 -10 -62 -12 -47 -3 -60 1 -109 32 -30 19 -156 100 -280 179 -124 79 -264
164 -311 189 -95 49 -256 98 -382 116 -176 25 -510 17 -688 -16 -33 -7 -39 -4
-64 29 l-27 36 23 47 c13 27 35 53 49 60 39 18 160 54 204 60 23 2 57 8 76 13
63 13 380 9 460 -6z m-907 -153 c31 -2 57 -38 57 -79 0 -122 -108 -296 -215
-346 -91 -43 -157 -31 -173 33 -10 44 9 139 39 188 26 41 11 43 -34 3 -51 -44
-99 -62 -129 -48 -24 12 -23 45 3 88 27 45 48 64 95 89 63 34 94 26 101 -23 2
-11 5 -21 6 -22 1 -1 27 20 57 48 64 58 96 75 142 72 18 -1 41 -2 51 -3z m836
-210 c210 -43 547 -190 710 -310 42 -31 98 -67 124 -81 165 -85 300 -239 266
-301 -17 -32 -56 -52 -89 -45 -17 3 -119 59 -228 125 -206 124 -386 230 -480
283 -89 49 -223 87 -414 116 -68 10 -397 8 -488 -4 -122 -15 -176 -11 -204 16
-33 30 -32 34 3 79 59 74 133 109 279 130 78 11 455 6 521 -8z m-174 -366
c174 -29 377 -91 515 -157 47 -22 153 -79 235 -126 301 -171 428 -268 437
-333 7 -45 -9 -96 -32 -109 -44 -24 -78 -13 -230 75 -47 28 -97 57 -112 65
-15 8 -72 42 -125 76 -295 184 -459 249 -683 271 -151 15 -684 7 -800 -11 -14
-2 -47 -7 -73 -11 -27 -4 -59 -8 -70 -11 -94 -17 -148 -30 -252 -59 -166 -45
-163 -45 -175 -30 -14 17 -7 65 15 103 42 70 220 143 508 207 37 8 80 17 95
19 78 14 164 26 222 32 36 3 67 8 69 10 6 5 414 -4 456 -11z m-95 -374 c93
-17 270 -63 330 -86 145 -54 188 -73 304 -134 72 -38 184 -101 249 -140 65
-39 121 -71 126 -71 13 0 125 -81 150 -109 71 -80 46 -200 -42 -201 -35 0 -33
-1 -367 190 -358 205 -391 221 -545 264 -157 43 -215 55 -320 63 -154 12 -486
6 -630 -12 -16 -2 -54 -7 -83 -9 -93 -10 -223 -35 -385 -75 -102 -25 -160 -35
-164 -28 -9 14 -5 80 6 110 29 77 135 118 521 203 19 4 38 7 42 6 4 -1 18 2
32 7 13 6 42 12 63 16 22 3 59 9 84 14 59 12 559 5 629 -8z m-186 -375 c126
-8 142 -12 386 -95 270 -91 287 -98 340 -131 25 -15 137 -78 250 -140 235
-129 270 -154 300 -215 31 -63 25 -113 -17 -141 -52 -35 -78 -26 -324 111
-212 119 -379 203 -485 245 -83 34 -219 77 -268 86 -16 3 -32 6 -35 8 -3 2
-33 7 -66 11 -32 3 -62 8 -65 10 -25 16 -485 22 -700 11 -115 -7 -237 -17
-260 -22 -8 -1 -67 -14 -130 -29 -210 -47 -248 -51 -256 -30 -13 32 82 157
143 189 44 22 349 94 513 121 19 3 76 8 125 11 50 4 91 7 92 8 5 4 366 -2 457
-8z m-39 -404 c60 -17 107 -29 150 -38 138 -26 423 -138 650 -255 273 -140
385 -207 416 -250 27 -38 28 -122 3 -150 -38 -42 -93 -25 -410 130 -132 65
-263 126 -290 137 -27 10 -80 36 -119 59 -65 37 -234 93 -335 110 -19 3 -75
12 -125 21 -49 8 -180 17 -290 19 -328 8 -439 13 -457 20 -20 8 -39 53 -34 80
16 78 62 121 138 129 93 10 128 11 383 10 220 -1 258 -4 320 -22z m-1035 -80
c-4 -20 -15 -63 -24 -95 -21 -69 -31 -75 -187 -107 -126 -27 -143 -25 -147 14
-7 56 35 135 85 163 27 15 154 52 203 60 19 3 36 6 38 8 2 2 11 1 21 -2 15 -4
17 -11 11 -41z m755 -305 c11 -3 52 -8 90 -12 166 -16 511 -115 673 -193 64
-30 119 -56 122 -57 14 -2 436 -218 463 -237 55 -37 67 -58 67 -119 0 -79 -18
-98 -93 -100 -52 -2 -69 4 -180 59 -67 33 -248 118 -402 187 -229 104 -299
132 -385 150 -58 13 -117 28 -132 34 -27 10 -184 35 -288 46 -30 3 -172 9
-315 12 -143 3 -270 9 -282 14 -35 13 -34 59 2 129 28 54 61 87 95 93 30 5
536 0 565 -6z m-871 -62 c-8 -106 -33 -171 -71 -186 -33 -13 -265 -48 -275
-42 -5 2 -8 22 -8 44 0 42 21 93 49 119 56 54 163 90 251 87 48 -2 55 -4 54
-22z"/>
</g>
</svg>
