<svg version="1.0" xmlns="http://www.w3.org/2000/svg" width="933.3" height="933.3" viewBox="0 0 700 700">
  <path d="M358 36h-8a105 105 0 0 0-22 5l-5 1-5 1-9 2-17 9-5 2c-1-1-11 2-14 5l-19 12c-10 6-21 19-31 40-6 14-9 21-9 29l-3 10c-4 5-5 9-9 27l-5 12c-3 8-4 10-4 15 0 6 0 7-4 13-5 9-6 13-6 21 0 5 0 6-2 9-4 5-8 14-8 17v8l2 5-4 5c-7 8-8 12-8 22l1 10-4 2c-5 5-8 12-11 30-1 4-2 8-5 12l-6 12c-2 5-2 7-3 17l-7 24-4 11 1 30c1 4 6 12 11 17l12 14c13 15 23 22 55 40l42 25c4 3 4 2-2 26l-15 54c-5 16-5 33 2 47 4 8 9 14 17 18l6 4 58 1 61-1c3 0 4 0 8-11 6-14 6-16 8-24a894 894 0 0 1 31-85l8-3c18-5 34-16 44-29 6-8 12-23 17-40 2-9 2-14 0-18-3-5-2-6 2-10 4-3 5-4 5-9l2-4v-12c-1-5-1-6 2-9 5-7 5-9 6-20 0-9 1-11 4-17 3-8 4-11 4-21l2-10c2-4 4-9 5-17 0-8 1-10 4-20l3-14 4-18 3-11c1-10 1-12 5-23l3-16 3-12a88 88 0 0 0 4-18l2-19c0-22-3-32-15-51a342 342 0 0 0-55-62l-29-27-5-4-7-5c-8-6-17-11-23-13l-11-5c-10-5-16-6-34-6h-14zm-2 56a200 200 0 0 1 86 35c24 17 32 25 33 33 1 5-1 8-5 9-3 0-6-2-28-16-40-27-48-31-66-35-28-6-55-6-78 0-15 3-19 2-17-5 1-8 13-15 30-17l15-3c3-2 17-2 30-1zm0 37c25 4 44 12 69 28 25 17 39 27 42 32 2 3 2 4 1 7l-1 5-6 1c-5 1-6 0-11-3l-27-17-31-19c-10-5-26-10-39-12-18-3-51-2-69 1-3 1-4 1-6-2l-3-4 2-5 5-6a114 114 0 0 1 29-7c7-1 37-1 45 1zm-91 15c3 0 6 4 6 8 0 12-11 29-21 34-14 7-21 1-17-13l3-9c3-4 1-4-3 0-5 4-10 6-13 5-6-3 4-18 14-20 3 0 6 1 6 3v2c0 1 2 1 6-3 6-6 10-8 14-7h5zm86 21a228 228 0 0 1 81 39c17 8 30 24 27 30-2 3-6 5-9 5l-23-13-48-28c-5-3-18-7-26-10-13-2-47-4-64-1-12 1-18 1-20-2-4-3-4-3 0-8 6-7 13-11 28-13 9-1 47 0 54 1zm-19 36c29 5 48 13 87 36 27 16 34 23 31 33-2 8-9 7-28-5l-8-4-3-2-42-24c-9-5-24-9-37-10a747 747 0 0 0-96 4c-13 2-13 2-25 6-15 4-15 4-16 2-1-1-1-6 2-10 2-3 11-9 21-12a394 394 0 0 1 68-15l46 1zm-10 38a247 247 0 0 1 99 42l16 11c4 4 5 7 5 11 0 6-3 10-8 10-4 0-4 0-37-19a195 195 0 0 0-86-33c-15-1-49 0-63 1l-9 1c-10 1-22 4-38 8s-16 4-17 2c-1-4 1-11 3-14 5-4 13-8 30-12a578 578 0 0 1 29-7l6-1 8-1c5-1 55 0 62 1zm-18 37c12 1 14 2 38 10 27 9 29 10 34 13l25 14c23 13 27 15 30 21 3 7 3 11-1 14l-5 2c-3 1-11-3-23-10a546 546 0 0 0-80-36h-4l-6-2-7-1a543 543 0 0 0-107 4l-23 4h-5c-1-4 9-16 15-19a376 376 0 0 1 64-14h55zm-10 39a466 466 0 0 0 20 5c13 3 37 12 59 23 27 13 45 23 48 28 3 4 3 12 0 15-3 4-9 3-41-13a797 797 0 0 0-74-30l-5-1-6-1-12-2-29-1-35-1c-2-1-4-6-4-8 1-5 3-8 6-10 3-3 6-4 18-4h55zm-98 6v4l-5 16-26 5c-4 1-4 0-5-2 0-4 2-11 5-14l4-3c4-2 22-7 24-6h3zm76 34 9 1 48 12c8 2 22 9 53 25 30 14 31 15 31 23s-1 10-4 10c-7 2-11 1-21-4l-47-22-29-12-18-4a228 228 0 0 0-60-6l-29-1c-3-1-3-6 1-13 2-5 6-9 9-9h57zm-88 6c0 5-1 12-3 15-1 4-4 5-16 7l-10 1h-5c-2-1-1-9 1-12 4-8 17-13 28-13 5 0 6 1 5 2z"/>
</svg>