<svg xmlns="http://www.w3.org/2000/svg" width="933.333" height="933.333" version="1" viewBox="0 0 700 700"><path d="M357.7 35.6c-.1.1-3.4.4-7.4.7-4 .4-10.1 1.4-13.5 2.3-3.5.9-7.4 1.8-8.8 2-1.4.2-3.6.7-5 1-1.4.3-3.6.8-5 1-6.6 1.2-17.1 5.6-24.9 10.6-2.4 1.5-4.8 2.5-5.3 2.2-1.6-1-11.4 2.5-14.4 5.1-4.5 4-13.3 9.9-19.3 13-10.5 5.3-21.1 18.9-31.4 40.5-6.3 13.2-8.4 19.8-9.2 29-.4 4.3-1.2 7.4-2.5 9-3.8 4.8-5.3 9.4-9.1 26.8-.5 2.3-2.7 8.1-4.9 12.7-3.4 7.1-4 9.5-4 14.9 0 5.7-.4 7.1-3.8 12.7-5.2 8.5-6.6 13.2-6.4 20.6.2 5.1-.2 6.8-2.3 9.8-3.2 4.7-7.4 13.7-7.8 16.7-.2 1.3.2 4.7.8 7.6l1.2 5.3-3.8 4.8c-6.6 8.3-7.9 12.2-7.4 22.6l.4 9.1-3.4 2.7c-5.2 4.1-9.5 14.9-10.9 27.3-.6 5.2-3.2 12-5.4 14.3-1.7 1.7-5 8.3-6.8 13.5-1.5 4.2-1.9 6-2.8 15.2-.6 5.2-2.2 10.7-7 24-1.4 3.8-2.8 8.8-3.1 11-.7 5.9-.7 26.7.1 30 1 4.2 6.9 13 11.8 17.8 2.3 2.3 7.7 8.3 12 13.4 13.1 15.6 22.6 22.5 60.6 44 11.8 6.7 25.3 14.6 30 17.5 10.6 6.6 10.3 4.5 3.6 31.2-1.9 7.7-5.6 21.2-8.1 30-2.6 8.8-4.7 16.4-4.9 17-.1.5-1 3.5-2 6.6-2.5 8.3-2.7 9.7-3 18.4-.7 19.7 7.9 37.2 22.5 46.1l6.1 3.7 57.6.2c31.8.1 59.3 0 61.2-.3 3.4-.4 3.6-.6 8.2-11.5 5.6-13.5 6.2-15.4 8.3-23.7 1.8-7.6 10-33.5 15.7-50 7.8-22.6 12.1-33.2 14.2-34.5 1.2-.8 6.2-2.7 11.3-4.4 11.3-3.7 16.9-6.5 25.3-12.7 17.1-12.5 25.3-26.2 32.2-53.9 2.4-9.7 2.5-16 .4-20-2.4-4.5-2-6 2.3-9.5 3.8-2.9 4.7-4.3 5.6-8.7.2-1 .7-2.9 1.3-4.3 1-2.7.9-4.6-.3-12.4-.6-4.3-.4-5.2 2.3-9 4.8-6.8 5.3-8.2 5.8-19.4.5-9.5.9-11.5 3.9-17.8 3.5-7.4 4.2-10.5 4.6-20.9.1-3.8 1-7.6 2.4-10.5 2.2-4.3 2.8-6.9 4-17 .9-7.5 1.6-10.1 4.5-19 1.6-4.7 3.1-11.2 3.4-14.5.8-8.1 1.4-11 3.7-17.7 1-3.2 2.1-8.1 2.4-11 1-9.7 1.6-12.2 5-22.5 1.9-5.6 3.7-13.1 3.9-16.5.3-3.5 1.5-9 2.6-12.3 2.1-6.2 2.6-8.2 3.6-15.5.3-2.5.8-4.9 1.1-5.3.3-.5.7-7.5.9-15.5.5-22.5-2.2-31.9-15-51.7-4.2-6.5-17.1-23.3-19.5-25.5-.3-.3-2.4-2.5-4.5-5-8.2-9.4-18.9-20.1-47.6-47-19.2-18.1-36.6-30.3-47-33-2.4-.7-7.6-2.9-11.5-5-3.8-2.1-8.3-4.1-10-4.4-1.6-.4-4.1-.9-5.5-1.2-2.3-.5-31.8-1.3-32.3-.8zm-2.2 56.8c22.8 2.1 45.5 9.9 68 23.4 8.2 4.9 27.8 17.9 31.5 20.9.8.6 3.9 3 6.7 5.3 5.9 4.5 13.3 13.3 13.4 15.8 0 1 .2 2.8.5 4.1.6 3.1-2 5.9-6.3 6.7-2.9.5-4.2 0-10.1-4.1-11.6-8.2-43.4-29-51.6-33.9-14.9-8.8-23.7-11.9-40.1-14-2.2-.3-4.9-.8-6-1-3.9-.8-19.1-1.8-27-1.9-13.5 0-25.5 1.2-36 3.8-16.1 4-19.3 3.2-18-4.5 1.4-8.3 13-15 30-17.4 10.1-1.5 11.8-1.8 15.1-2.9 3.7-1.3 17-1.5 29.9-.3zm.5 36.2c24.8 4.7 44 12.8 69 28.9 25.2 16.2 38.8 26.5 42 31.8 1.5 2.4 1.9 4.2 1.4 7.2-.3 2.2-.9 4.4-1.3 4.8-.5.5-3.2 1-6.2 1.2-4.7.3-6-.1-10.9-3.2-3-1.9-15.6-10-28-17.9-12.4-7.9-26.4-16.4-31.1-18.9-9.5-4.9-25.6-9.8-38.2-11.6-17.6-2.5-51-1.7-68.8 1.6-3.3.7-3.9.4-6.4-2.9l-2.7-3.6 2.3-4.7c1.3-2.7 3.5-5.3 4.9-6 3.9-1.8 16-5.4 20.4-6 2.3-.2 5.7-.8 7.6-1.3 6.3-1.3 38-.9 46 .6zm-90.7 15.3c3.1.2 5.7 3.8 5.7 7.9 0 12.2-10.8 29.6-21.5 34.6-9.1 4.3-15.7 3.1-17.3-3.3-1-4.4.9-13.9 3.9-18.8 2.6-4.1 1.1-4.3-3.4-.3-5.1 4.4-9.9 6.2-12.9 4.8-2.4-1.2-2.3-4.5.3-8.8 2.7-4.5 4.8-6.4 9.5-8.9 6.3-3.4 9.4-2.6 10.1 2.3.2 1.1.5 2.1.6 2.2.1.1 2.7-2 5.7-4.8 6.4-5.8 9.6-7.5 14.2-7.2 1.8.1 4.1.2 5.1.3zm83.6 21c21 4.3 54.7 19 71 31 4.2 3.1 9.8 6.7 12.4 8.1 16.5 8.5 30 23.9 26.6 30.1-1.7 3.2-5.6 5.2-8.9 4.5-1.7-.3-11.9-5.9-22.8-12.5-20.6-12.4-38.6-23-48-28.3-8.9-4.9-22.3-8.7-41.4-11.6-6.8-1-39.7-.8-48.8.4-12.2 1.5-17.6 1.1-20.4-1.6-3.3-3-3.2-3.4.3-7.9 5.9-7.4 13.3-10.9 27.9-13 7.8-1.1 45.5-.6 52.1.8zm-17.4 36.6c17.4 2.9 37.7 9.1 51.5 15.7 4.7 2.2 15.3 7.9 23.5 12.6 30.1 17.1 42.8 26.8 43.7 33.3.7 4.5-.9 9.6-3.2 10.9-4.4 2.4-7.8 1.3-23-7.5-4.7-2.8-9.7-5.7-11.2-6.5-1.5-.8-7.2-4.2-12.5-7.6-29.5-18.4-45.9-24.9-68.3-27.1-15.1-1.5-68.4-.7-80 1.1-1.4.2-4.7.7-7.3 1.1-2.7.4-5.9.8-7 1.1-9.4 1.7-14.8 3-25.2 5.9-16.6 4.5-16.3 4.5-17.5 3-1.4-1.7-.7-6.5 1.5-10.3 4.2-7 22-14.3 50.8-20.7 3.7-.8 8-1.7 9.5-1.9 7.8-1.4 16.4-2.6 22.2-3.2 3.6-.3 6.7-.8 6.9-1 .6-.5 41.4.4 45.6 1.1zm-9.5 37.4c9.3 1.7 27 6.3 33 8.6 14.5 5.4 18.8 7.3 30.4 13.4 7.2 3.8 18.4 10.1 24.9 14 6.5 3.9 12.1 7.1 12.6 7.1 1.3 0 12.5 8.1 15 10.9 7.1 8 4.6 20-4.2 20.1-3.5 0-3.3.1-36.7-19-35.8-20.5-39.1-22.1-54.5-26.4-15.7-4.3-21.5-5.5-32-6.3-15.4-1.2-48.6-.6-63 1.2-1.6.2-5.4.7-8.3.9-9.3 1-22.3 3.5-38.5 7.5-10.2 2.5-16 3.5-16.4 2.8-.9-1.4-.5-8 .6-11 2.9-7.7 13.5-11.8 52.1-20.3 1.9-.4 3.8-.7 4.2-.6.4.1 1.8-.2 3.2-.7 1.3-.6 4.2-1.2 6.3-1.6 2.2-.3 5.9-.9 8.4-1.4 5.9-1.2 55.9-.5 62.9.8zm-18.6 37.5c12.6.8 14.2 1.2 38.6 9.5 27 9.1 28.7 9.8 34 13.1 2.5 1.5 13.7 7.8 25 14 23.5 12.9 27 15.4 30 21.5 3.1 6.3 2.5 11.3-1.7 14.1-5.2 3.5-7.8 2.6-32.4-11.1-21.2-11.9-37.9-20.3-48.5-24.5-8.3-3.4-21.9-7.7-26.8-8.6-1.6-.3-3.2-.6-3.5-.8-.3-.2-3.3-.7-6.6-1.1-3.2-.3-6.2-.8-6.5-1-2.5-1.6-48.5-2.2-70-1.1-11.5.7-23.7 1.7-26 2.2-.8.1-6.7 1.4-13 2.9-21 4.7-24.8 5.1-25.6 3-1.3-3.2 8.2-15.7 14.3-18.9 4.4-2.2 34.9-9.4 51.3-12.1 1.9-.3 7.6-.8 12.5-1.1 5-.4 9.1-.7 9.2-.8.5-.4 36.6.2 45.7.8zm-3.9 40.4c6 1.7 10.7 2.9 15 3.8 13.8 2.6 42.3 13.8 65 25.5 27.3 14 38.5 20.7 41.6 25 2.7 3.8 2.8 12.2.3 15-3.8 4.2-9.3 2.5-41-13-13.2-6.5-26.3-12.6-29-13.7-2.7-1-8-3.6-11.9-5.9-6.5-3.7-23.4-9.3-33.5-11-1.9-.3-7.5-1.2-12.5-2.1-4.9-.8-18-1.7-29-1.9-32.8-.8-43.9-1.3-45.7-2-2-.8-3.9-5.3-3.4-8 1.6-7.8 6.2-12.1 13.8-12.9 9.3-1 12.8-1.1 38.3-1 22 .1 25.8.4 32 2.2zm-103.5 8c-.4 2-1.5 6.3-2.4 9.5-2.1 6.9-3.1 7.5-18.7 10.7-12.6 2.7-14.3 2.5-14.7-1.4-.7-5.6 3.5-13.5 8.5-16.3 2.7-1.5 15.4-5.2 20.3-6 1.9-.3 3.6-.6 3.8-.8.2-.2 1.1-.1 2.1.2 1.5.4 1.7 1.1 1.1 4.1zm75.5 30.5c1.1.3 5.2.8 9 1.2 16.6 1.6 51.1 11.5 67.3 19.3 6.4 3 11.9 5.6 12.2 5.7 1.4.2 43.6 21.8 46.3 23.7 5.5 3.7 6.7 5.8 6.7 11.9 0 7.9-1.8 9.8-9.3 10-5.2.2-6.9-.4-18-5.9-6.7-3.3-24.8-11.8-40.2-18.7-22.9-10.4-29.9-13.2-38.5-15-5.8-1.3-11.7-2.8-13.2-3.4-2.7-1-18.4-3.5-28.8-4.6-3-.3-17.2-.9-31.5-1.2-14.3-.3-27-.9-28.2-1.4-3.5-1.3-3.4-5.9.2-12.9 2.8-5.4 6.1-8.7 9.5-9.3 3-.5 53.6 0 56.5.6zm-87.1 6.2c-.8 10.6-3.3 17.1-7.1 18.6-3.3 1.3-26.5 4.8-27.5 4.2-.5-.2-.8-2.2-.8-4.4 0-4.2 2.1-9.3 4.9-11.9 5.6-5.4 16.3-9 25.1-8.7 4.8.2 5.5.4 5.4 2.2z"/></svg>