<svg xmlns="http://www.w3.org/2000/svg" version="1.0" viewBox="0 0 700 700"><path d="M363.8 35.5c-.2.2-4.6.5-9.8.8-5.2.4-11.1 1.1-13 1.7-1.9.6-5 1.2-6.9 1.5-1.8.2-4.1.7-5 .9-.9.3-3.6.8-5.9 1.1-9.1 1.3-21.2 5.8-31.2 11.7-2.5 1.5-7.2 3.4-10.4 4.3-3.7 1.1-7.9 3.3-11 5.9-2.8 2.2-8.9 6.1-13.4 8.5-12.8 6.9-22.7 19-34 41.6-6.1 12.2-8.8 20.1-9.6 28-.9 7.6-1.3 9.1-4.3 13.7-2.6 4.3-4.6 9.8-6.2 17.5-.6 2.9-3.2 11.7-5.9 19.5-2.9 9-4.7 16-4.7 18.8 0 2.5-.5 5.1-1.2 5.8-6.3 6.5-9.3 13.7-8.3 19.6 1 5.6-.5 11.1-5.7 20.1-2.9 5-4.6 9.1-4.6 11 .5 14.4.5 14.5-3.2 18.9-6.1 7.4-7.7 14.1-6 24.8.6 4.2.5 4.7-1.4 5.3-3.8 1.2-11.1 15.7-11.1 21.9 0 5.2-5.5 21.1-9.1 26.5-3.9 5.7-4.3 6.9-9.4 30.1-1.4 6.3-3.5 13.5-4.5 16-3.2 7.3-3.8 11.9-3.5 28.6.3 18.3 1 20.9 7.7 27 2.4 2.2 7 7.6 10.2 12 10.6 14.2 23.8 25.2 44.6 36.9 9 5.1 18.5 10.8 28.7 17.1 3.5 2.2 12 7.5 19 11.8 7.1 4.3 13 8.1 13.2 8.2.2.2-.1 2.9-.8 5.9-.7 3-1.2 5.7-1.3 6 0 .2-.6 2.6-1.4 5.2-1.4 4.4-5.9 24-7.1 30.7-.2 1.6-3 10.8-6 20.5-5 15.9-5.6 18.6-5.9 28.2-.7 21.4 7.3 38.1 22.8 47.5l6 3.7 53.2-.7c52.4-.6 68.4-1.1 69-1.7 1-1.2 7.9-19.9 10.6-28.9 5.9-19.4 20-62.4 23.5-71.9 6.6-17.4 8-19.2 16.5-21.1 6.9-1.5 21-8.5 28.7-14.1 17.1-12.4 26.9-30.5 32.9-60.4.9-4.8.6-8.4-1-13.1l-1.9-5 4.6-4.7c5.5-5.7 7.2-11.7 6.4-22-.6-6.8-.5-7.2 3.2-13.3 3.2-5.3 3.8-7.2 4-12.8.1-3.6.4-7.6.7-8.8.2-1.3.7-3.8 1-5.7.8-4.6 2-7.8 4.5-11.2 1.4-1.9 2.2-5.1 2.5-9.6.3-3.8 1-8.6 1.6-10.8.5-2.2 1.1-4.7 1.3-5.5.2-.8 1-4.2 1.8-7.5.9-3.3 2.5-11.2 3.7-17.5 1.1-6.3 3.4-16.2 5-22 1.6-5.8 3.2-13.4 3.5-17 .4-3.6 1.5-9.9 2.5-14s2.1-9.3 2.5-11.5c.3-2.2 1.7-6.7 3-10 1.2-3.3 2.6-8.3 3.1-11 .4-2.8.8-5.2.9-5.5.3-.9 1.6-9.4 2-12.7.2-1.8 1.2-5.7 2.3-8.6 1.1-2.9 2.3-7.5 2.7-10.2.4-2.8 1-5.9 1.2-7 .2-1.1.7-8.5 1-16.5.4-11.7.2-15.8-1.2-21-4.1-15.9-15.6-34.5-35.1-57-5.2-6-47.7-48.3-55.6-55.3-17.5-15.7-31.1-24.8-41.2-27.8-3.9-1.1-10.9-3.9-15.6-6.1-4.7-2.2-10.2-4.2-12.3-4.5-4.2-.5-25.5-1.1-25.9-.8zm-6.5 57c14.2 1.4 31.4 5.9 40.7 10.6 4.1 2.1 10.9 5.7 15 7.9 4.1 2.3 11.6 6.4 16.6 9.1 5 2.7 13.6 8.2 19 12.1 20.2 14.8 26 20.9 27 28.2.6 4 .4 4.6-2 6.1-2.4 1.6-2.7 1.6-5.8-.3-3.7-2.2-4.6-2.8-27.1-15.3-19.2-10.8-60.6-31.5-64.4-32.3-1.5-.3-4.6-.9-6.8-1.2-2.2-.3-4.2-.7-4.5-.9-.3-.2-3.7-.6-7.5-1-3.9-.4-8.1-.9-9.5-1.1-3.8-.7-25.9-.6-31.5.1-2.8.4-9.3 1.6-14.5 2.7-19.8 4.2-22.8 3.6-21.5-4.1 1.3-7.7 13.2-15.2 28-17.7 9.9-1.6 21.5-3.4 24-3.6 3.9-.4 17.5 0 24.8.7zm-8.8 35c5 .7 6.4.9 12 1.9 1.7.3 4.7.8 6.8 1.2 3.3.5 27.5 9.7 33.2 12.6 12.2 6.3 46.9 28.3 56 35.5.6.4 2.6 1.9 4.6 3.2 7.5 5 10.4 14.6 5.8 19.2-1.8 1.8-2.9 2-7.8 1.5-3.2-.3-6.7-1.4-8.1-2.5-1.4-1.1-7.7-5.2-14-9-6.3-3.9-17.1-10.6-24-15-6.9-4.4-14.6-9.1-17.1-10.5-2.5-1.3-6.3-3.4-8.5-4.6-6.3-3.6-26.4-9.8-34.5-10.7-9.2-1-40.8-1-50.9 0-4.2.4-10 1.4-13 2.2-4.8 1.3-5.6 1.2-8.1-.2-4.3-2.6-5.5-5.6-4-10.1 1.5-4.1 3.8-7.2 5.5-7.2.7 0 5.4-1.4 10.6-3 10.2-3.4 12-3.7 23-4.6 4.1-.4 7.6-.7 7.7-.9.6-.4 20.1.4 24.8 1zm-83.2 17c3.9.6 4.8 1.2 5.3 3.2 2.2 8.4-5.1 26.5-13.9 34.5-3.5 3.2-11.6 6.1-17.1 6.1-6 0-8-3-7.1-10.8.3-3.3 1.7-8.4 3-11.4 1.4-2.9 2.5-5.5 2.5-5.8 0-.7-4.4 1.9-7.5 4.5-6.7 5.6-12.9 6-11.9.7 1.5-8.6 9.8-16.5 17.3-16.5 2.6 0 3.1.4 3.7 3.5.3 1.9.8 3.5 1.1 3.5.2 0 2.7-2.1 5.4-4.8 4.9-4.6 11-8.2 13.3-7.8.6.2 3.2.6 5.9 1.1zm92.9 22.8c26.5 7.2 47.8 17.7 74.3 36.6 5.5 3.9 10.9 7.7 12 8.3 1 .7 4.2 3.5 7.1 6.1 8.1 7.5 9.9 17.3 3.4 19.5-4.9 1.8-5.9 1.3-36.5-17.8-7.7-4.8-18.3-11-23.5-13.7-5.2-2.7-13.3-7-18-9.5-7.9-4.2-13.8-6-31-9.3-12.8-2.5-39-2.4-61.5.1-10.7 1.2-12 1-15.5-2.6-1.7-1.7-3-3.5-3-4.1 0-.6 2.4-3.4 5.3-6.1 4.1-4.1 6.8-5.6 13-7.7 7.7-2.6 8.2-2.6 36-2.5 27.2.1 28.6.2 37.9 2.7zm-29.7 33.9c19.1 2.1 41.8 9.7 64 21.3 25.4 13.3 30.7 16.3 41.1 23.2 14.2 9.4 17.8 14.4 16.3 22.6-.9 5.2-2.2 6.2-7.5 6.1-6.4-.1-19.2-6.9-39.4-20.7-10.4-7.2-34.2-19.2-45-22.7-18.2-6-26.6-6.8-63.5-6.5-18.1.2-34.3.6-36 .9-1.6.3-7 1-12 1.6-11.3 1.4-28.4 5.2-40.6 9-10.6 3.3-12.1 3-11.3-2.8 1.3-10 11.1-15.7 39.5-22.7 7.9-2 15.8-3.8 17.4-4.1 1.7-.3 4.8-.9 7-1.4 6.1-1.4 16.2-2.9 24-3.6 3.9-.4 7.1-.8 7.3-.9.8-.7 31.5-.2 38.7.7zm-.6 38.3c27.2 6.4 56 18 77.1 31 5.2 3.2 12.9 7.9 17 10.3 18.7 11.2 24.2 19.9 18.3 28.9-3.1 4.7-4.9 4.2-27.5-7.8-26.1-13.8-28.3-15-38.3-21-4.4-2.6-11.4-6.1-15.6-7.8-11.6-4.6-34.5-11-42.9-12-7.5-.9-51.2-.7-56 .2-1.4.3-5.7.8-9.6 1.1-3.9.4-8.2.9-9.5 1.1-1.3.3-4.4.7-6.9 1-7.5.9-9.8 1.4-28.7 6-9.9 2.5-18.8 4.5-19.7 4.5-2.4 0-2.4-8.5 0-13.2 2.7-5.2 14-10.8 29.1-14.3 3.7-.9 7.5-1.8 8.3-2 .8-.2 8.9-2 18-3.9l16.5-3.5h31.9c25.5-.1 33.3.2 38.5 1.4zm-21 37c4.6.4 11.3 2.2 18 4.7 5.8 2.2 19.3 6.9 29.9 10.4 20.7 6.9 26.7 9.7 52.2 24.7 22.1 12.9 24.1 15 25.5 25.4.6 5.1.6 5.3-2.6 7.2-2.2 1.3-4.2 1.8-5.9 1.4-3.3-.8-12.1-4.9-19-8.8-31.1-18-56.1-29.6-74-34.5-11-2.9-27-5.6-36.2-6-20.6-.9-56.2-.2-73.3 1.5-15.4 1.6-15.1 1.5-35.5 4.6-8 1.1-14.8 2.3-15.2 2.5-1.9 1.2-1.4-1.8 1.2-6.3 3-5.3 8.2-11.1 12.1-13.6 3.7-2.4 31-9 49.9-12.1 1.9-.3 8-.9 13.5-1.2 5.5-.4 10.1-.7 10.3-.9.6-.5 42.5.3 49.1 1zm-5.4 41c4.4 1.4 8.7 2.8 9.5 3 24.6 5.4 49.8 15.2 82.6 32 19.3 9.9 27.7 16.3 29.3 22.1.9 3.3-.6 11.5-2.3 12.6-3.6 2.4-10.3 0-37.6-13.6-12.4-6.2-24.3-11.9-26.5-12.6-2.2-.7-9.5-3.9-16.1-7.1-11.1-5.4-19-7.9-33.2-10.4-1.8-.3-6.5-1.2-10.5-2.1-8.4-1.8-11.6-2.1-29.7-2.8-12-.5-29.1-1.4-39-2.1-1.9-.1-5-.3-6.8-.4-2.7-.1-3.5-.7-4.6-3.3-.8-1.7-1.2-3.9-1.1-4.7.2-.9.4-2.1.4-2.8.1-.7 1.4-2.8 3.1-4.6 3.3-3.8 5.3-4.3 19-5.3 4.7-.4 8.6-.8 8.8-.9.2-.2 10.8-.2 23.5 0 22 .3 23.6.5 31.2 3zM195.2 326c-.5 6.5-4 15-6.5 16-1.2.4-7.7 1.8-14.5 3.1-11.1 2.1-12.3 2.2-13.8.8-1.4-1.4-1.3-2.1.5-7.5 1.2-3.2 3.4-7.1 4.9-8.6 3.4-3.4 18.9-8.5 25.2-8.4l4.5.1-.3 4.5zm81.3 29.4c18.4 2.3 47.8 10.6 72 20.3 16.1 6.5 56.5 27.4 60.6 31.3 3.6 3.4 3.9 4.1 3.9 9.1 0 8.2-.7 9.8-4.6 10.5-4.6.8-21.5-4.9-41.8-14.3-37-17.2-48.6-22.2-52.8-22.8-2.3-.3-8.4-1.9-13.3-3.5-8.3-2.6-21.8-5.1-35.5-6.5-3-.3-16.3-.8-29.5-1.1-13.2-.2-25.9-.7-28.2-1-4.2-.5-4.3-.6-4.3-4.4 0-7.6 6.2-17.7 11.3-18.3 3.7-.4 57.7.2 62.2.7zm-91.8 4.7c.9.9.7 2.4-.8 6.1-1 2.7-1.9 5.7-1.9 6.8 0 3.5-2.2 6.9-5 7.5-1.5.3-5 .8-7.8 1-2.8.2-7.8 1.1-11 2-9 2.3-9.2 2.2-9.2-2.9 0-10 5.6-16.4 17.5-20.2 5.1-1.6 16.7-1.8 18.2-.3z"/></svg>