<?xml version="1.0" standalone="no"?>
<!DOCTYPE svg PUBLIC "-//W3C//DTD SVG 20010904//EN"
 "http://www.w3.org/TR/2001/REC-SVG-20010904/DTD/svg10.dtd">
<svg version="1.0" xmlns="http://www.w3.org/2000/svg"
 width="700.000000pt" height="700.000000pt" viewBox="0 0 700.000000 700.000000"
 preserveAspectRatio="xMidYMid meet">
<metadata>
Created by potrace 1.14, written by Peter Selinger 2001-2017
</metadata>
<g transform="translate(0.000000,700.000000) scale(0.100000,-0.100000)"
fill="#000000" stroke="none">
<path d="M3577 6644 c-1 -1 -34 -4 -74 -7 -40 -4 -101 -14 -135 -23 -35 -9
-74 -18 -88 -20 -14 -2 -36 -7 -50 -10 -14 -3 -38 -8 -55 -11 -16 -3 -57 -15
-90 -28 -57 -21 -84 -35 -167 -84 -21 -13 -41 -20 -46 -17 -17 10 -108 -23
-138 -50 -45 -39 -133 -98 -193 -129 -103 -52 -211 -189 -309 -395 -65 -136
-89 -209 -96 -295 -5 -47 -13 -78 -26 -95 -38 -48 -54 -95 -91 -267 -5 -23
-27 -80 -49 -128 -34 -72 -40 -96 -40 -149 0 -56 -4 -71 -38 -127 -52 -85 -66
-132 -64 -206 2 -51 -2 -68 -23 -98 -32 -47 -74 -137 -78 -167 -2 -13 2 -47 8
-76 l12 -53 -38 -48 c-66 -83 -79 -122 -74 -226 l4 -91 -34 -27 c-54 -43 -82
-116 -114 -299 -7 -38 -24 -79 -51 -120 -22 -34 -49 -86 -60 -116 -20 -54 -24
-72 -34 -168 -6 -52 -22 -107 -70 -240 -14 -38 -28 -88 -31 -110 -7 -59 -7
-267 1 -300 10 -41 65 -124 116 -175 24 -24 78 -86 122 -137 129 -153 222
-223 542 -403 202 -114 376 -216 428 -252 35 -24 35 -19 -23 -254 -35 -141
-125 -463 -152 -544 -53 -161 -45 -326 24 -467 40 -82 91 -139 167 -186 l63
-39 576 -2 c317 -1 592 0 611 3 34 4 36 6 82 115 57 137 63 155 83 237 19 78
102 341 157 500 80 232 121 332 144 346 12 8 52 23 89 34 171 49 332 156 433
286 66 85 126 232 168 404 21 89 21 144 0 185 -24 45 -20 60 23 95 38 29 47
43 56 87 2 10 7 29 13 43 10 27 9 46 -3 124 -6 43 -4 52 23 90 48 68 53 82 58
194 5 95 9 115 39 177 35 72 42 105 46 210 1 37 9 73 20 93 22 38 34 89 44
177 8 78 12 94 45 195 16 47 31 112 34 145 8 81 14 110 37 177 10 32 21 81 24
110 10 97 16 122 50 225 19 56 37 131 39 165 3 35 15 90 26 123 11 33 23 73
26 90 3 16 10 55 15 85 6 30 12 118 14 195 7 216 -22 313 -149 510 -93 143
-289 372 -440 514 -27 25 -76 72 -110 105 -86 82 -244 227 -291 267 -22 19
-42 36 -45 39 -3 3 -34 27 -68 53 -80 60 -173 112 -232 127 -24 7 -76 29 -115
50 -91 49 -158 62 -333 65 -78 0 -143 0 -145 -1z m-22 -568 c112 -10 210 -31
333 -72 167 -55 302 -126 525 -276 246 -165 328 -244 341 -332 8 -47 -11 -73
-58 -82 -29 -5 -57 11 -277 158 -400 269 -481 311 -656 347 -288 58 -554 60
-783 4 -155 -37 -188 -28 -175 47 14 83 130 150 300 174 101 15 118 18 151 29
37 13 171 15 299 3z m5 -362 c247 -47 440 -128 690 -289 252 -162 388 -265
420 -318 15 -24 19 -42 14 -72 -3 -22 -9 -44 -13 -48 -5 -5 -32 -10 -62 -12
-47 -3 -60 1 -109 31 -30 20 -154 99 -275 177 -121 77 -260 162 -310 188 -99
52 -257 101 -388 120 -176 25 -510 17 -688 -16 -33 -7 -39 -4 -64 29 l-27 36
23 47 c13 27 35 53 49 60 39 18 159 54 204 60 23 3 59 9 81 13 70 13 374 9
455 -6z m-907 -153 c31 -2 57 -38 57 -79 0 -122 -108 -296 -215 -346 -132 -63
-203 -6 -167 134 7 30 23 70 34 88 25 40 9 41 -35 2 -51 -44 -99 -62 -129 -48
-61 30 46 175 142 195 28 5 64 -11 56 -26 -2 -3 -1 -13 3 -23 5 -13 16 -7 61
34 64 58 98 75 143 72 18 -1 40 -3 50 -3z m857 -214 c212 -49 532 -190 689
-306 42 -31 98 -67 124 -81 165 -85 300 -239 266 -301 -17 -32 -56 -52 -89
-45 -17 3 -119 59 -228 125 -206 124 -386 230 -480 283 -48 27 -180 72 -267
93 -126 29 -468 40 -635 19 -123 -15 -176 -11 -204 16 -33 30 -32 34 3 79 59
74 133 109 279 130 91 13 467 5 542 -12z m-195 -362 c296 -49 489 -127 870
-353 275 -162 340 -231 313 -329 -22 -82 -91 -71 -281 46 -37 22 -71 41 -76
41 -4 0 -19 9 -33 19 -56 45 -274 170 -422 244 -86 42 -240 82 -366 94 -98 10
-536 10 -670 0 -133 -10 -161 -14 -290 -37 -134 -25 -127 -24 -250 -58 -148
-41 -148 -41 -160 -27 -14 17 -7 65 15 103 21 36 114 91 210 125 75 26 322 91
390 101 22 4 67 11 100 16 33 5 89 12 125 16 36 3 67 8 68 9 7 6 417 -3 457
-10z m-95 -374 c114 -21 277 -66 360 -98 36 -13 83 -31 105 -40 61 -22 293
-146 412 -218 58 -36 109 -65 113 -65 14 0 131 -81 161 -111 35 -36 49 -68 49
-110 0 -57 -35 -98 -83 -99 -35 0 -33 -1 -367 190 -358 205 -391 221 -545 264
-154 42 -214 55 -315 63 -147 12 -489 6 -635 -12 -16 -2 -55 -7 -85 -10 -98
-10 -223 -34 -384 -74 -154 -38 -158 -38 -165 -18 -12 33 4 105 30 133 45 48
130 84 299 124 86 21 205 48 250 56 14 3 32 7 40 9 8 3 33 7 55 11 22 3 58 9
80 14 57 11 559 4 625 -9z m-181 -375 c122 -9 139 -13 381 -95 270 -91 287
-98 340 -131 25 -15 137 -78 250 -140 234 -128 270 -154 299 -213 31 -65 28
-111 -10 -139 -17 -13 -38 -23 -47 -23 -31 -1 -110 34 -229 101 -196 110 -223
125 -345 185 -171 86 -358 156 -462 175 -16 3 -32 6 -35 8 -3 2 -33 7 -66 11
-32 3 -62 8 -65 10 -25 15 -478 22 -705 11 -170 -9 -220 -15 -363 -47 -137
-30 -156 -33 -230 -44 -33 -5 -44 -3 -48 9 -13 33 82 158 142 189 45 23 348
95 514 122 19 3 76 8 125 11 50 4 91 7 92 8 5 4 377 -2 462 -8z m-104 -389
c11 -3 56 -15 101 -26 45 -12 90 -23 100 -25 130 -25 376 -118 594 -225 272
-133 448 -236 481 -282 27 -38 29 -122 3 -150 -38 -42 -93 -25 -410 130 -132
65 -263 126 -290 137 -27 10 -80 36 -119 59 -67 39 -242 96 -339 110 -21 3
-41 7 -45 9 -3 2 -31 7 -61 10 -30 4 -83 10 -118 15 -35 4 -164 9 -288 10
-230 3 -326 7 -355 16 -21 7 -41 53 -35 80 9 44 26 73 55 98 30 25 63 32 176
40 67 4 529 -1 550 -6z m-979 -56 c8 -1 9 -13 4 -38 -13 -67 -41 -151 -53
-162 -17 -13 -212 -55 -262 -56 -37 0 -40 2 -43 29 -4 33 21 105 46 133 9 10
29 24 44 32 35 18 219 68 238 65 8 -1 20 -3 26 -3z m759 -344 c11 -3 53 -8 94
-12 69 -7 318 -66 478 -114 80 -24 223 -90 536 -247 293 -146 306 -157 307
-239 0 -74 -8 -93 -40 -100 -73 -16 -111 -8 -214 43 -107 54 -139 69 -471 219
-241 109 -245 111 -288 118 -55 10 -151 33 -179 44 -27 10 -185 36 -288 46
-30 3 -172 9 -315 12 -143 3 -270 9 -282 14 -35 13 -34 59 2 129 28 54 61 87
95 93 30 5 536 0 565 -6z m-871 -62 c-4 -48 -17 -112 -30 -143 -17 -41 -41
-51 -169 -68 -27 -3 -70 -10 -95 -14 -24 -5 -48 -6 -52 -4 -16 10 -7 90 15
128 40 72 165 127 277 123 48 -2 55 -4 54 -22z"/>
</g>
</svg>
